<svg width="371" height="328" viewBox="0 0 371 328" fill="none" xmlns="http://www.w3.org/2000/svg">
<g clip-path="url(#clip0_3_87)">
<path d="M361.409 103.525C352.371 79.006 334.245 58.59 308.558 51.365C296.25 47.903 283.402 46.954 270.684 45.642C250.688 43.579 230.053 40.307 213.289 29.214C207.045 25.082 205.182 19.33 197.508 15.159C190.962 11.6 184.314 8.242 177.258 5.8C153.99 -2.25 127.94 -0.0639982 104.96 8.773C81.98 17.61 61.838 32.723 44.348 50.052C29.248 65.013 15.698 82.097 8.22299 101.996C3.56099 114.405 1.36799 127.643 0.681992 140.881C-1.01801 173.655 6.63499 207 23.328 235.255C37.772 259.705 59.031 280.185 84.181 293.296H287.158C290.28 291.693 293.352 289.996 296.363 288.19C326.709 269.988 350.407 240.957 362.164 207.58C373.921 174.203 373.648 136.728 361.409 103.525Z" fill="#0062D0" fill-opacity="0.1"/>
<path d="M191.724 52.917C192.292 52.916 192.886 52.907 193.385 52.636C194.184 52.2 194.501 51.233 194.74 50.355C195.409 47.899 195.869 44.871 193.987 43.156C192.777 42.053 190.841 41.933 189.404 42.718C187.967 43.503 187.044 45.073 186.854 46.699C186.612 45.471 185.269 44.678 184.019 44.746C182.769 44.814 181.646 45.564 180.789 46.476C181.492 44.31 180.543 41.723 178.607 40.524C176.67 39.326 173.932 39.631 172.307 41.226C170.682 42.821 170.326 45.554 171.489 47.512C170.7 46.759 169.603 46.27 168.522 46.412C167.44 46.554 166.438 47.431 166.349 48.518C165.221 47.897 163.97 47.378 162.687 47.485C160.153 47.696 158.87 50.888 161.046 52.47C162.83 53.767 166.969 52.981 168.975 52.975C176.557 52.956 184.141 52.936 191.724 52.917Z" fill="white"/>
<path d="M274.101 35.081C274.669 35.08 275.263 35.072 275.762 34.8C276.561 34.364 276.878 33.397 277.117 32.519C277.787 30.063 278.246 27.035 276.364 25.32C275.154 24.217 273.218 24.097 271.781 24.882C270.344 25.667 269.421 27.237 269.231 28.863C268.989 27.635 267.646 26.842 266.396 26.91C265.146 26.978 264.023 27.728 263.166 28.64C263.869 26.474 262.92 23.887 260.984 22.688C259.048 21.49 256.309 21.795 254.684 23.39C253.059 24.985 252.703 27.718 253.866 29.676C253.077 28.923 251.98 28.434 250.899 28.576C249.817 28.718 248.815 29.595 248.726 30.682C247.598 30.061 246.347 29.542 245.064 29.649C242.53 29.86 241.247 33.052 243.423 34.634C245.207 35.931 249.346 35.145 251.352 35.139C258.934 35.12 266.518 35.101 274.101 35.081Z" fill="#0062D0" fill-opacity="0.1"/>
<path d="M212.511 292.577H153.921C151.694 292.577 149.947 290.666 150.146 288.448L156.229 220.522C156.404 218.567 158.042 217.07 160.004 217.07H206.019C207.973 217.07 209.606 218.555 209.792 220.5L216.283 288.426C216.497 290.651 214.747 292.577 212.511 292.577Z" fill="#D1D3D4"/>
<path d="M206.02 217.07H160.005C158.043 217.07 156.405 218.568 156.23 220.522L152.68 260.165C162.998 257.372 184.902 253.374 213.458 258.844L209.794 220.5C209.607 218.555 207.974 217.07 206.02 217.07Z" fill="#D1D3D4"/>
<path d="M323.035 249.275H43.397C38.391 249.275 34.296 245.18 34.296 240.174V74.868C34.296 69.862 38.392 65.767 43.397 65.767H323.035C328.041 65.767 332.136 69.863 332.136 74.868V240.174C332.137 245.18 328.041 249.275 323.035 249.275Z" fill="white"/>
<path d="M323.035 65.767H43.397C38.391 65.767 34.296 69.863 34.296 74.868V213.246H332.136V74.868C332.137 69.863 328.041 65.767 323.035 65.767Z" fill="#383838"/>
<path d="M320.475 75.723H45.958V203.198H320.475V75.723Z" fill="#0062D0" fill-opacity="0.1"/>
<path d="M192.449 117.849C196 114.361 201.16 113.517 205.491 115.291L197.537 123.104C195.67 124.937 195.643 127.965 197.477 129.831C199.31 131.698 202.338 131.725 204.205 129.891L212.159 122.078C213.856 126.441 212.919 131.584 209.368 135.072C205.817 138.56 200.657 139.404 196.326 137.63L170.372 163.123C168.505 164.956 165.478 164.929 163.644 163.063C161.811 161.196 161.838 158.169 163.704 156.335L189.658 130.842C187.961 126.481 188.898 121.337 192.449 117.849Z" fill="#0062D0"/>
<path d="M183.205 134.39L169.895 121.659C169.895 121.659 174.915 116.566 180.044 118.094C180.044 118.094 180.881 118.286 181.244 117.808C181.608 117.33 181.68 117.003 180.371 116.384C179.061 115.766 171.241 111.764 162.111 122.75C162.111 122.75 163.166 128.716 156.909 127.843L153.453 131.226L160.728 138.356L164.22 134.791C164.22 134.791 162.62 132.245 165.093 130.317C167.567 128.389 169.713 130.717 169.713 130.717L177.912 139.505L183.205 134.39Z" fill="#0062D0"/>
<path d="M207.362 157.707L193.518 144.403L187.657 149.856L200.378 163.6C200.378 163.6 204.743 165.855 206.744 163.345C208.745 160.835 208.053 158.507 207.362 157.707Z" fill="#0062D0"/>
<path d="M53.926 84.191C53.926 85.316 53.014 86.228 51.889 86.228C50.764 86.228 49.852 85.316 49.852 84.191C49.852 83.066 50.764 82.154 51.889 82.154C53.014 82.154 53.926 83.065 53.926 84.191Z" fill="#E54C64"/>
<path d="M61.455 84.191C61.455 85.316 60.543 86.228 59.418 86.228C58.293 86.228 57.381 85.316 57.381 84.191C57.381 83.066 58.293 82.154 59.418 82.154C60.543 82.153 61.455 83.065 61.455 84.191Z" fill="#FBB040"/>
<path d="M68.984 84.191C68.984 85.316 68.072 86.228 66.947 86.228C65.822 86.228 64.91 85.316 64.91 84.191C64.91 83.066 65.822 82.154 66.947 82.154C68.072 82.153 68.984 83.065 68.984 84.191Z" fill="#8DC63F"/>
<path d="M313.503 86.228H96.451C94.921 86.228 93.669 84.976 93.669 83.446C93.669 81.916 94.921 80.663 96.451 80.663H313.503C315.033 80.663 316.286 81.915 316.286 83.446C316.285 84.976 315.033 86.228 313.503 86.228Z" fill="white"/>
<path d="M97.9587 84.9571L97.149 82.2996H97.578L98.1524 84.3343H98.1801L98.7476 82.2996H99.1836L99.7441 84.3273H99.7718L100.346 82.2996H100.775L99.9656 84.9571H99.5642L98.9829 82.9156H98.9414L98.3601 84.9571H97.9587ZM101.917 84.9571L101.107 82.2996H101.537L102.111 84.3343H102.139L102.706 82.2996H103.142L103.703 84.3273H103.73L104.305 82.2996H104.734L103.924 84.9571H103.523L102.941 82.9156H102.9L102.319 84.9571H101.917ZM105.876 84.9571L105.066 82.2996H105.495L106.069 84.3343H106.097L106.665 82.2996H107.101L107.661 84.3273H107.689L108.263 82.2996H108.692L107.883 84.9571H107.481L106.9 82.9156H106.858L106.277 84.9571H105.876ZM109.168 84.9848C109.083 84.9848 109.009 84.9542 108.948 84.8931C108.887 84.8319 108.857 84.7587 108.857 84.6734C108.857 84.588 108.887 84.5148 108.948 84.4536C109.009 84.3925 109.083 84.3619 109.168 84.3619C109.253 84.3619 109.327 84.3925 109.388 84.4536C109.449 84.5148 109.479 84.588 109.479 84.6734C109.479 84.7299 109.465 84.7818 109.436 84.8291C109.409 84.8764 109.371 84.9144 109.324 84.9433C109.278 84.9709 109.226 84.9848 109.168 84.9848Z" fill="#0062D0"/>
<path d="M235.093 289.77H131.34C131.105 289.77 130.912 289.962 130.912 290.197V292.149C130.912 292.384 131.104 292.577 131.34 292.577H235.092C235.327 292.577 235.52 292.385 235.52 292.149V290.197C235.52 289.962 235.328 289.77 235.093 289.77Z" fill="white"/>
<path opacity="0.4" d="M168.401 264.487H103.317C102.181 264.487 101.251 263.557 101.251 262.421V229.624C101.251 228.488 102.181 227.558 103.317 227.558H168.401C169.537 227.558 170.467 228.488 170.467 229.624V262.421C170.468 263.557 169.538 264.487 168.401 264.487Z" fill="#0062D0" fill-opacity="0.1"/>
<path d="M168.401 264.487H103.317C102.181 264.487 101.251 263.557 101.251 262.421V229.624C101.251 228.488 102.181 227.558 103.317 227.558H168.401C169.537 227.558 170.467 228.488 170.467 229.624V262.421C170.468 263.557 169.538 264.487 168.401 264.487Z" stroke="#0062D0" stroke-miterlimit="10"/>
<g opacity="0.8">
<path opacity="0.6" d="M146.181 248.352C143.066 250.421 138.864 249.573 136.796 246.458C134.727 243.343 135.575 239.141 138.69 237.072C141.805 235.003 146.007 235.851 148.076 238.965C150.143 242.081 149.295 246.284 146.181 248.352Z" fill="white"/>
<path opacity="0.6" d="M146.181 248.352C146.523 248.125 146.836 247.871 147.123 247.596L141.618 235.992C140.602 236.115 139.599 236.468 138.689 237.073C138.62 237.119 138.554 237.167 138.487 237.214L144.433 249.181C145.038 248.994 145.627 248.72 146.181 248.352Z" fill="white"/>
<path opacity="0.6" d="M143.392 249.416L137.451 238.13C137.239 238.36 137.046 238.603 136.87 238.856L142.324 249.481C142.679 249.488 143.036 249.467 143.392 249.416Z" fill="white"/>
<path d="M136.305 246.784C134.06 243.404 134.983 238.829 138.363 236.584C141.743 234.339 146.318 235.262 148.563 238.642C150.808 242.022 149.885 246.598 146.505 248.842C143.126 251.087 138.55 250.164 136.305 246.784ZM147.585 239.292C145.699 236.452 141.854 235.676 139.014 237.563C136.174 239.449 135.399 243.294 137.285 246.134C139.171 248.974 143.016 249.75 145.856 247.863C148.695 245.977 149.471 242.132 147.585 239.292Z" fill="#0062D0"/>
<path d="M137.12 246.948L123.593 256.495C123.116 256.831 122.457 256.718 122.121 256.241C121.784 255.764 121.898 255.105 122.375 254.769C122.39 254.758 122.409 254.746 122.425 254.736L136.47 245.969C136.745 245.797 137.108 245.881 137.28 246.156C137.446 246.422 137.372 246.77 137.12 246.948Z" fill="#0062D0"/>
</g>
<path opacity="0.7" d="M139.644 209.286H16.358C14.205 209.286 12.444 207.525 12.444 205.372V143.247C12.444 141.094 14.205 139.333 16.358 139.333H139.644C141.797 139.333 143.558 141.094 143.558 143.247V205.372C143.558 207.525 141.797 209.286 139.644 209.286Z" fill="white"/>
<path d="M139.644 209.286H16.358C14.205 209.286 12.444 207.525 12.444 205.372V143.247C12.444 141.094 14.205 139.333 16.358 139.333H139.644C141.797 139.333 143.558 141.094 143.558 143.247V205.372C143.558 207.525 141.797 209.286 139.644 209.286Z" stroke="#0062D0" stroke-miterlimit="10"/>
<g opacity="0.8">
<path d="M76.575 153.668C73.155 156.799 64.399 164.677 59.379 167.942C58.638 168.424 58.277 169.319 58.467 170.182C59.366 174.267 63.031 185.811 76.825 195.149C77.529 195.626 78.472 195.626 79.177 195.149C92.971 185.811 96.637 174.268 97.535 170.182C97.725 169.319 97.364 168.424 96.624 167.942C91.604 164.677 82.848 156.799 79.428 153.668C78.618 152.927 77.384 152.927 76.575 153.668Z" fill="#0062D0"/>
<path d="M76.703 155.517C73.589 158.367 65.618 165.539 61.047 168.512C60.372 168.951 60.044 169.765 60.217 170.551C61.035 174.27 64.372 184.78 76.93 193.281C77.571 193.715 78.43 193.715 79.071 193.281C91.629 184.78 94.966 174.271 95.784 170.551C95.957 169.765 95.629 168.95 94.954 168.512C90.384 165.539 82.412 158.367 79.298 155.517C78.563 154.843 77.44 154.843 76.703 155.517Z" fill="white"/>
<path d="M94.955 168.512C90.385 165.539 82.413 158.367 79.299 155.517C78.931 155.18 78.466 155.011 78.001 155.011V174.857H94.44C95.153 173.049 95.565 171.55 95.785 170.551C95.958 169.766 95.63 168.951 94.955 168.512Z" fill="#0062D0"/>
<path d="M61.562 174.858C63.503 179.782 67.745 187.064 76.931 193.282C77.252 193.499 77.627 193.608 78.002 193.608V174.858H61.562Z" fill="#0062D0"/>
</g>
<path opacity="0.7" d="M339.343 110.699H216.058C213.905 110.699 212.144 108.938 212.144 106.785V44.66C212.144 42.507 213.905 40.746 216.058 40.746H339.344C341.497 40.746 343.258 42.507 343.258 44.66V106.785C343.257 108.938 341.496 110.699 339.343 110.699Z" fill="white"/>
<path d="M339.343 110.699H216.058C213.905 110.699 212.144 108.938 212.144 106.785V44.66C212.144 42.507 213.905 40.746 216.058 40.746H339.344C341.497 40.746 343.258 42.507 343.258 44.66V106.785C343.257 108.938 341.496 110.699 339.343 110.699Z" stroke="#0062D0" stroke-miterlimit="10"/>
<g opacity="0.8">
<path d="M263.62 90.891H292.568C294.143 90.891 295.753 89.602 296.146 88.027L300.285 71.425C300.678 69.85 299.71 68.561 298.135 68.561H269.187C267.612 68.561 266.002 69.85 265.609 71.425L261.47 88.027C261.077 89.602 262.045 90.891 263.62 90.891Z" fill="#1E0033"/>
<path d="M291.781 90.891H262.833C261.258 90.891 259.648 89.602 259.255 88.027L255.116 71.425C254.723 69.85 255.691 68.561 257.266 68.561H286.214C287.789 68.561 289.399 69.85 289.792 71.425L293.931 88.027C294.324 89.602 293.356 90.891 291.781 90.891Z" fill="#0062D0"/>
</g>
<path opacity="0.7" d="M130.307 68.56H52.661C51.305 68.56 50.196 67.451 50.196 66.095V26.969C50.196 25.613 51.305 24.504 52.661 24.504H130.307C131.663 24.504 132.772 25.613 132.772 26.969V66.095C132.772 67.451 131.663 68.56 130.307 68.56Z" fill="white"/>
<path d="M130.307 68.56H52.661C51.305 68.56 50.196 67.451 50.196 66.095V26.969C50.196 25.613 51.305 24.504 52.661 24.504H130.307C131.663 24.504 132.772 25.613 132.772 26.969V66.095C132.772 67.451 131.663 68.56 130.307 68.56Z" stroke="#0062D0" stroke-miterlimit="10"/>
<g opacity="0.8">
<path d="M91.484 34.4L77.475 58.665H105.494L91.484 34.4Z" stroke="#0062D0" stroke-width="2.8347" stroke-miterlimit="10" stroke-linecap="round" stroke-linejoin="round"/>
<path d="M90.356 54.348C90.356 53.66 90.834 53.162 91.484 53.162C92.172 53.162 92.612 53.659 92.612 54.348C92.612 55.017 92.172 55.533 91.484 55.533C90.815 55.534 90.356 55.018 90.356 54.348ZM90.834 51.615L90.566 42.438H92.401L92.133 51.615H90.834Z" fill="#0062D0"/>
</g>
<path opacity="0.7" d="M343.853 205.405H253.84C252.268 205.405 250.982 204.119 250.982 202.547V157.189C250.982 155.617 252.268 154.331 253.84 154.331H343.853C345.425 154.331 346.711 155.617 346.711 157.189V202.547C346.71 204.119 345.424 205.405 343.853 205.405Z" fill="white"/>
<path d="M343.853 205.405H253.84C252.268 205.405 250.982 204.119 250.982 202.547V157.189C250.982 155.617 252.268 154.331 253.84 154.331H343.853C345.425 154.331 346.711 155.617 346.711 157.189V202.547C346.71 204.119 345.424 205.405 343.853 205.405Z" stroke="#0062D0" stroke-miterlimit="10"/>
<path d="M314.331 177.657L313.038 177.299L314.205 176.638C314.354 176.553 314.407 176.362 314.323 176.213L309.238 167.232C309.153 167.083 308.962 167.03 308.813 167.114L307.645 167.775L308.003 166.482C308.049 166.317 307.951 166.144 307.786 166.098L297.84 163.343C297.675 163.297 297.502 163.395 297.456 163.56L297.098 164.853L296.437 163.686C296.352 163.537 296.161 163.484 296.012 163.568L287.031 168.653C286.882 168.738 286.828 168.929 286.913 169.079L287.574 170.246L286.281 169.888C286.116 169.842 285.943 169.94 285.897 170.105L283.142 180.051C283.096 180.216 283.194 180.389 283.359 180.435L284.652 180.793L283.485 181.454C283.335 181.538 283.283 181.73 283.367 181.879L288.452 190.86C288.537 191.009 288.728 191.063 288.877 190.978L290.044 190.317L289.686 191.61C289.64 191.775 289.738 191.948 289.903 191.994L299.849 194.749C300.014 194.795 300.187 194.697 300.233 194.532L300.591 193.239L301.252 194.407C301.337 194.556 301.528 194.609 301.678 194.525L310.659 189.44C310.808 189.356 310.861 189.164 310.777 189.015L310.116 187.848L311.409 188.206C311.574 188.252 311.747 188.154 311.793 187.989L314.548 178.043C314.595 177.876 314.497 177.703 314.331 177.657ZM296.659 186.944C292.297 185.736 289.741 181.221 290.949 176.859C292.157 172.497 296.672 169.941 301.034 171.149C305.396 172.357 307.952 176.872 306.744 181.234C305.535 185.595 301.02 188.152 296.659 186.944Z" fill="#0062D0"/>
<path d="M247.448 192.061C247.68 191.166 248.116 190.163 249.012 189.936C250.22 189.63 251.221 190.972 251.463 192.195C251.705 193.418 251.615 194.783 252.363 195.781C253.252 195.103 254.637 195.196 255.428 195.985C256.219 196.775 256.313 198.16 255.637 199.05C255.537 199.181 255.421 199.308 255.383 199.468C255.247 200.05 256.091 200.262 256.651 200.473C257.718 200.875 258.223 202.199 257.987 203.315C257.751 204.431 256.939 205.342 256.035 206.036C252.853 208.479 250.24 206.814 248.721 203.761C246.938 200.177 246.442 195.946 247.448 192.061Z" fill="#A05E47"/>
<path d="M342.793 186.032C342.952 185.634 343.209 185.258 343.583 185.048C344.435 184.571 345.592 185.195 345.929 186.111C346.076 186.51 346.241 187.057 346.665 187.031C347.431 185.099 346.422 182.864 346.94 180.851C347.079 180.309 347.401 179.736 347.949 179.62C348.534 179.496 349.086 179.955 349.413 180.457C350.02 181.391 350.196 182.528 350.43 183.617C350.482 183.858 350.546 184.115 350.732 184.277C350.904 184.427 351.144 184.464 351.361 184.533C351.965 184.726 352.461 185.229 352.646 185.836C352.72 186.081 352.746 186.337 352.807 186.586C353.116 187.844 354.263 188.722 354.779 189.911C355.214 190.914 355.163 192.075 354.858 193.126C354.553 194.176 354.012 195.14 353.475 196.093C353.352 196.311 353.212 196.545 352.98 196.639C352.816 196.705 352.632 196.69 352.457 196.666C351.82 196.576 351.204 196.372 350.603 196.141C348.776 195.437 347.052 194.465 345.504 193.265C343.588 191.781 341.805 188.508 342.793 186.032Z" fill="#A05E47"/>
<path d="M343.321 190.261C331.729 210.653 316.414 213.338 315.633 213.462C311.966 213.988 309.401 217.372 309.895 221.052C310.158 223.014 311.239 224.664 312.747 225.708C314.083 226.633 315.754 227.082 317.492 226.848C318.402 226.726 339.943 223.548 355.07 196.941C350.922 193.084 343.321 190.261 343.321 190.261Z" fill="#0062D0"/>
<path d="M315.633 213.461C311.966 213.987 309.401 217.371 309.895 221.051C310.158 223.013 311.239 224.663 312.747 225.707C314.083 226.632 315.754 227.081 317.492 226.847C317.894 226.793 322.327 226.138 328.452 223.134C323.405 217.481 322.64 212.833 322.557 211.027C318.667 212.938 315.95 213.411 315.633 213.461Z" fill="#0062D0"/>
<path d="M275.826 323.37V326.71C275.826 326.71 262.52 329.299 250.482 326.71L255.966 323.37H275.826Z" fill="#171C27"/>
<path d="M360.27 303.428H363.896C363.896 303.428 366.227 316.428 363.896 322.048C363.896 322.048 362.251 324.447 358.824 324.104C358.824 324.104 360.825 322.697 360.27 320.111V303.428Z" fill="#171C27"/>
<path d="M322.937 270.285L323.5 301.382L360.27 303.428C360.27 303.428 362.676 314.979 360.27 320.111H323.5C323.5 320.111 304.622 323.491 303.578 305.373C302.534 287.255 302.445 275.214 302.445 275.214C302.445 275.214 315.274 268.737 322.937 270.285Z" fill="#2E2E2E"/>
<path d="M323.525 265.71C323.525 265.71 327.826 279.482 319.811 282.399C311.797 285.316 274.159 282.399 274.159 282.399L275.826 323.37C275.826 323.37 265.132 326.703 255.965 323.37L254.715 275.177C254.715 275.177 251.753 261.383 278.603 263.643L323.525 265.71Z" fill="#353636"/>
<path d="M314.411 200.039L313.83 211.163L308.461 215.563L303.641 212.269L303.99 205.579L314.411 200.039Z" fill="#A05E47"/>
<path d="M305.874 209.762L303.007 209.613C298.602 209.383 295.187 205.592 295.416 201.187L295.989 190.203C296.219 185.799 300.01 182.383 304.414 182.613L307.281 182.762C311.686 182.992 315.102 186.783 314.872 191.188L314.299 202.172C314.07 206.576 310.278 209.991 305.874 209.762Z" fill="#A05E47"/>
<path d="M305.063 204.569C303.701 203.008 303.152 200.918 302.656 198.907C302.575 198.578 302.494 198.233 302.579 197.905C302.664 197.582 302.897 197.323 303.108 197.064C303.619 196.435 304.048 195.688 304.066 194.878C304.084 194.068 303.581 193.206 302.789 193.035C301.858 192.834 300.957 193.661 300.721 194.584C300.485 195.507 300.732 196.476 300.978 197.396C300.035 197.806 299.06 196.707 298.972 195.682C298.884 194.657 299.278 193.633 299.172 192.61C299.001 190.953 297.614 189.737 296.62 188.401C295.626 187.065 295.089 184.937 296.393 183.901C296.933 183.473 297.655 183.361 298.264 183.04C299.294 182.497 299.925 181.401 300.906 180.773C301.595 180.332 302.415 180.148 303.224 180.027C308.084 179.301 313.665 181.038 315.965 185.38C317.7 188.656 317.258 192.608 316.77 196.283C316.362 199.356 316.402 204.268 313.31 205.909C310.687 207.301 307.052 206.848 305.063 204.569Z" fill="#171C27"/>
<path d="M313.504 210.625C313.504 210.625 324.301 210.625 323.481 222.238C322.661 233.851 321.158 240.756 322.524 248.29C323.891 255.823 323.525 265.71 323.525 265.71C323.525 265.71 301.204 273.021 289.041 265.017C289.041 265.017 290.818 227.26 291.228 221.453C291.638 215.646 297.096 210.566 305.714 210.624C314.332 210.682 314.332 210.682 314.332 210.682" fill="#0062D0"/>
<path d="M304.992 265.242C315.808 265.242 323.556 261.365 323.666 261.308C323.77 261.255 323.811 261.126 323.758 261.023C323.704 260.919 323.573 260.878 323.473 260.931C323.316 261.011 307.532 268.9 289.568 261.974C289.458 261.932 289.336 261.986 289.294 262.095C289.252 262.205 289.307 262.328 289.416 262.368C294.939 264.499 300.26 265.242 304.992 265.242Z" fill="#0D314C"/>
<path d="M323.359 255.84C323.362 255.84 323.365 255.84 323.368 255.84C323.485 255.834 323.576 255.736 323.571 255.619C323.405 251.863 322.739 248.287 322.732 248.251C321.755 242.866 322.243 237.911 322.917 231.054C323.172 228.461 323.462 225.521 323.693 222.254C323.701 222.137 323.612 222.036 323.495 222.027C323.4 222.022 323.277 222.106 323.268 222.224C323.038 225.484 322.749 228.421 322.494 231.012C321.841 237.644 321.325 242.883 322.313 248.328C322.32 248.364 322.981 251.913 323.145 255.636C323.152 255.75 323.246 255.84 323.359 255.84Z" fill="#0D314C"/>
<path d="M322.504 265.9C322.621 265.9 322.716 265.805 322.716 265.688V262.725C322.716 262.608 322.621 262.513 322.504 262.513C322.387 262.513 322.292 262.608 322.292 262.725V265.688C322.292 265.805 322.387 265.9 322.504 265.9Z" fill="#0D314C"/>
<path d="M321.106 265.735C321.223 265.735 321.318 265.64 321.318 265.523V263.424C321.318 263.307 321.223 263.212 321.106 263.212C320.989 263.212 320.894 263.307 320.894 263.424V265.523C320.894 265.64 320.989 265.735 321.106 265.735Z" fill="#0D314C"/>
<path d="M319.6 266.488C319.717 266.488 319.812 266.393 319.812 266.276V263.854C319.812 263.737 319.717 263.642 319.6 263.642C319.483 263.642 319.388 263.737 319.388 263.854V266.276C319.388 266.393 319.483 266.488 319.6 266.488Z" fill="#0D314C"/>
<path d="M317.825 266.813C317.942 266.813 318.037 266.718 318.037 266.601V264.662C318.037 264.545 317.942 264.45 317.825 264.45C317.708 264.45 317.613 264.545 317.613 264.662V266.601C317.613 266.718 317.708 266.813 317.825 266.813Z" fill="#0D314C"/>
<path d="M316.211 267.193C316.328 267.193 316.423 267.098 316.423 266.981V264.822C316.423 264.705 316.328 264.61 316.211 264.61C316.094 264.61 315.999 264.705 315.999 264.822V266.981C315.999 267.098 316.094 267.193 316.211 267.193Z" fill="#0D314C"/>
<path d="M314.651 267.579C314.768 267.579 314.863 267.484 314.863 267.367V265.2C314.863 265.083 314.768 264.988 314.651 264.988C314.534 264.988 314.439 265.083 314.439 265.2V267.367C314.439 267.484 314.534 267.579 314.651 267.579Z" fill="#0D314C"/>
<path d="M312.823 267.569C312.94 267.569 313.035 267.474 313.035 267.357V265.307C313.035 265.19 312.94 265.095 312.823 265.095C312.706 265.095 312.611 265.19 312.611 265.307V267.357C312.61 267.474 312.706 267.569 312.823 267.569Z" fill="#0D314C"/>
<path d="M311.263 267.671C311.38 267.671 311.475 267.576 311.475 267.459V265.684C311.475 265.567 311.38 265.472 311.263 265.472C311.146 265.472 311.051 265.567 311.051 265.684V267.459C311.051 267.576 311.146 267.671 311.263 267.671Z" fill="#0D314C"/>
<path d="M309.864 268.225C309.981 268.225 310.076 268.13 310.076 268.013V265.898C310.076 265.781 309.981 265.686 309.864 265.686C309.747 265.686 309.652 265.781 309.652 265.898V268.013C309.652 268.131 309.747 268.225 309.864 268.225Z" fill="#0D314C"/>
<path d="M307.982 267.834C308.099 267.834 308.194 267.739 308.194 267.622V266.275C308.194 266.158 308.099 266.063 307.982 266.063C307.865 266.063 307.77 266.158 307.77 266.275V267.622C307.77 267.738 307.865 267.834 307.982 267.834Z" fill="#0D314C"/>
<path d="M306.69 268.264C306.807 268.264 306.902 268.169 306.902 268.052V266.383C306.902 266.266 306.807 266.171 306.69 266.171C306.573 266.171 306.478 266.266 306.478 266.383V268.052C306.478 268.169 306.573 268.264 306.69 268.264Z" fill="#0D314C"/>
<path d="M305.454 268.435C305.571 268.435 305.666 268.34 305.666 268.223V266.114C305.666 265.997 305.571 265.902 305.454 265.902C305.337 265.902 305.242 265.997 305.242 266.114V268.223C305.242 268.34 305.337 268.435 305.454 268.435Z" fill="#0D314C"/>
<path d="M304.109 268.502C304.226 268.502 304.321 268.407 304.321 268.29V266.114C304.321 265.997 304.226 265.902 304.109 265.902C303.992 265.902 303.897 265.997 303.897 266.114V268.29C303.897 268.407 303.992 268.502 304.109 268.502Z" fill="#0D314C"/>
<path d="M302.657 268.055C302.774 268.055 302.869 267.96 302.869 267.843V266.114C302.869 265.997 302.774 265.902 302.657 265.902C302.54 265.902 302.445 265.997 302.445 266.114V267.843C302.445 267.959 302.54 268.055 302.657 268.055Z" fill="#0D314C"/>
<path d="M301.258 267.834C301.375 267.834 301.47 267.739 301.47 267.622V266.114C301.47 265.997 301.375 265.902 301.258 265.902C301.141 265.902 301.046 265.997 301.046 266.114V267.622C301.046 267.738 301.141 267.834 301.258 267.834Z" fill="#0D314C"/>
<path d="M299.59 268.225C299.707 268.225 299.802 268.13 299.802 268.013V265.952C299.802 265.835 299.707 265.74 299.59 265.74C299.473 265.74 299.378 265.835 299.378 265.952V268.013C299.378 268.131 299.473 268.225 299.59 268.225Z" fill="#0D314C"/>
<path d="M298.031 267.864C298.148 267.864 298.243 267.769 298.243 267.652V265.414C298.243 265.297 298.148 265.202 298.031 265.202C297.914 265.202 297.819 265.297 297.819 265.414V267.652C297.819 267.769 297.914 267.864 298.031 267.864Z" fill="#0D314C"/>
<path d="M296.848 267.502C296.965 267.502 297.06 267.407 297.06 267.29V265.254C297.06 265.137 296.965 265.042 296.848 265.042C296.731 265.042 296.636 265.137 296.636 265.254V267.29C296.635 267.407 296.731 267.502 296.848 267.502Z" fill="#0D314C"/>
<path d="M295.341 267.3C295.458 267.3 295.553 267.205 295.553 267.088V264.877C295.553 264.76 295.458 264.665 295.341 264.665C295.224 264.665 295.129 264.76 295.129 264.877V267.088C295.129 267.205 295.224 267.3 295.341 267.3Z" fill="#0D314C"/>
<path d="M294.051 266.978C294.168 266.978 294.263 266.883 294.263 266.766V264.607C294.263 264.49 294.168 264.395 294.051 264.395C293.934 264.395 293.839 264.49 293.839 264.607V266.766C293.839 266.883 293.934 266.978 294.051 266.978Z" fill="#0D314C"/>
<path d="M292.544 266.598C292.661 266.598 292.756 266.503 292.756 266.386V264.447C292.756 264.33 292.661 264.235 292.544 264.235C292.427 264.235 292.332 264.33 292.332 264.447V266.386C292.332 266.503 292.427 266.598 292.544 266.598Z" fill="#0D314C"/>
<path d="M291.092 265.789C291.209 265.789 291.304 265.694 291.304 265.577V263.585C291.304 263.468 291.209 263.373 291.092 263.373C290.975 263.373 290.88 263.468 290.88 263.585V265.577C290.88 265.694 290.975 265.789 291.092 265.789Z" fill="#0D314C"/>
<path d="M290.016 265.415C290.133 265.415 290.228 265.32 290.228 265.203V263.101C290.228 262.984 290.133 262.889 290.016 262.889C289.899 262.889 289.804 262.984 289.804 263.101V265.203C289.804 265.32 289.899 265.415 290.016 265.415Z" fill="#0D314C"/>
<path d="M305.569 215.803C303.763 212.537 299.646 211.353 296.386 213.16C295.592 213.597 276.693 223.651 260.303 198.551C254.868 199.734 248.988 205.939 248.988 205.939C266.213 232.317 288.869 231.158 300.46 226.188C301.35 225.806 302.175 225.402 302.927 224.986C306.192 223.181 307.375 219.07 305.569 215.803Z" fill="#0062D0"/>
<path d="M290.816 228.735C290.816 228.735 293.837 228.489 296.608 227.558L290.441 236.094L290.816 228.735Z" fill="#0062D0"/>
</g>
<defs>
<clipPath id="clip0_3_87">
<rect width="371" height="328" fill="white"/>
</clipPath>
</defs>
</svg>
