<svg width="40" height="40" viewBox="0 0 40 40" fill="none" xmlns="http://www.w3.org/2000/svg">
<path d="M30.1387 21.0471V18.9529H35.9617V21.0471H30.1387ZM32.0875 32.4679L27.4083 28.9766L28.6796 27.31L33.3587 30.8012L32.0875 32.4679ZM28.6775 12.6087L27.4058 10.9425L32.0233 7.4679L33.295 9.13456L28.6775 12.6087ZM8.95291 30.8012V24.295H6.64541C5.93125 24.295 5.31819 24.039 4.80625 23.5271C4.2943 23.0151 4.03833 22.4021 4.03833 21.6879V18.3121C4.03833 17.5979 4.2943 16.9848 4.80625 16.4729C5.31819 15.961 5.93125 15.705 6.64541 15.705H13.4937L20.9617 11.25V28.75L13.4937 24.295H11.0471V30.8012H8.95291ZM18.8675 25.0404V14.9596L14.0621 17.7991H6.64541C6.51708 17.7991 6.39958 17.8526 6.29291 17.9596C6.18597 18.0662 6.1325 18.1837 6.1325 18.3121V21.6879C6.1325 21.8162 6.18597 21.9337 6.29291 22.0404C6.39958 22.1473 6.51708 22.2008 6.64541 22.2008H14.0621L18.8675 25.0404ZM23.2692 25.1987V14.8012C23.9231 15.3932 24.4497 16.1389 24.8492 17.0383C25.2489 17.938 25.4487 18.9253 25.4487 20C25.4487 21.0747 25.2489 22.0619 24.8492 22.9616C24.4497 23.8611 23.9231 24.6068 23.2692 25.1987Z" fill="white"/>
</svg>
