<svg width="40" height="40" viewBox="0 0 40 40" fill="none" xmlns="http://www.w3.org/2000/svg">
<path d="M7.26494 34.3804C6.04994 34.3804 5.01619 33.9544 4.16369 33.1025C3.31091 32.2508 2.88452 31.2182 2.88452 30.0046C2.88452 29.3307 3.02897 28.6944 3.31785 28.0958C3.60674 27.4969 4.01785 26.9832 4.55119 26.5546V18.75H8.12494V9.16665H19.6237L27.1345 26.7466C27.2984 27.1255 27.4359 27.516 27.547 27.9179C27.6581 28.3198 27.7137 28.7361 27.7137 29.1666C27.7137 30.6083 27.2052 31.8378 26.1883 32.855C25.1711 33.8719 23.9424 34.3804 22.5024 34.3804C21.4283 34.3804 20.4481 34.0762 19.562 33.4679C18.6759 32.8596 18.0345 32.0526 17.6379 31.0471H11.5116C11.2774 32.0179 10.7644 32.8161 9.97244 33.4416C9.18049 34.0675 8.27799 34.3804 7.26494 34.3804ZM29.9891 32.7137V7.08331H32.0833V30.6196H37.1154V32.7137H29.9891ZM7.25994 32.2862C7.90216 32.2862 8.44466 32.0665 8.88744 31.6271C9.32994 31.1876 9.55119 30.6469 9.55119 30.005C9.55119 29.3628 9.33147 28.8203 8.89202 28.3775C8.45258 27.935 7.91188 27.7137 7.26994 27.7137C6.62772 27.7137 6.08522 27.9335 5.64244 28.3729C5.19994 28.8123 4.97869 29.353 4.97869 29.995C4.97869 30.6372 5.19841 31.1797 5.63785 31.6225C6.0773 32.065 6.61799 32.2862 7.25994 32.2862ZM22.4966 32.2862C23.3599 32.2862 24.0963 31.9826 24.7058 31.3754C25.3149 30.7685 25.6195 30.0333 25.6195 29.17C25.6195 28.3066 25.3159 27.5703 24.7087 26.9608C24.1017 26.3516 23.3666 26.0471 22.5033 26.0471C21.6399 26.0471 20.9035 26.3507 20.2941 26.9579C19.6849 27.5648 19.3804 28.3 19.3804 29.1633C19.3804 30.0266 19.684 30.763 20.2912 31.3725C20.8981 31.9816 21.6333 32.2862 22.4966 32.2862ZM11.5116 28.9529H17.2866C17.3049 28.416 17.4076 27.8987 17.5945 27.4012C17.7815 26.9037 18.0452 26.4523 18.3858 26.0471H14.2949L9.29577 20.8441H6.64535V25.6837C6.73924 25.6623 6.8416 25.6464 6.95244 25.6358C7.06327 25.625 7.16744 25.6196 7.26494 25.6196C8.27799 25.6196 9.18049 25.9325 9.97244 26.5583C10.7644 27.1839 11.2774 27.9821 11.5116 28.9529ZM15.2179 23.9358H22.9358C23.0747 23.9358 23.2109 23.9519 23.3445 23.9841C23.4781 24.0161 23.609 24.0641 23.737 24.1283L18.2729 11.2608H10.2191V18.75L15.2179 23.9358ZM14.2949 26.0471L13.5154 25.2296C12.9959 24.6848 12.4226 24.0878 11.7954 23.4383C11.1681 22.7891 10.5948 22.1944 10.0754 21.6541L9.29577 20.8441L14.2949 26.0471Z" fill="white"/>
</svg>
