<svg width="40" height="40" viewBox="0 0 40 40" fill="none" xmlns="http://www.w3.org/2000/svg">
<path d="M9.83131 29.1283V15.4271H11.9255V29.1283H9.83131ZM19.0321 29.1283V15.4271H21.1259V29.1283H19.0321ZM4.61548 12.5V10.6754L20.0001 2.57916L35.3846 10.6754V12.5H4.61548ZM9.6434 10.4058H30.3676L20.0001 4.96583L9.6434 10.4058ZM4.61548 34.1496V32.0554H24.2746C24.3088 32.406 24.3484 32.7487 24.3934 33.0837C24.4381 33.419 24.5171 33.7743 24.6305 34.1496H4.61548ZM28.0746 23.2937V15.4271H30.1688V22.2471L28.0746 23.2937ZM33.3334 39.3587C31.5556 38.9187 30.0855 37.9001 28.923 36.3029C27.7608 34.7057 27.1796 32.9317 27.1796 30.9808V27.0512L33.3334 23.9746L39.4871 27.0512V30.9808C39.4871 32.9317 38.906 34.7057 37.7438 36.3029C36.5813 37.9001 35.1112 38.9187 33.3334 39.3587ZM32.283 34.6475L37.7684 29.1708L36.6634 28.0554L32.283 32.4187L30.2521 30.3879L29.1476 31.5012L32.283 34.6475Z" fill="white"/>
</svg>
