<svg width="18" height="18" viewBox="0 0 18 18" fill="none" xmlns="http://www.w3.org/2000/svg">
<path d="M7.9987 9.99992H1.33203C1.0487 9.99992 0.811254 9.90403 0.619698 9.71225C0.42792 9.52047 0.332031 9.28292 0.332031 8.99959C0.332031 8.71603 0.42792 8.47859 0.619698 8.28725C0.811254 8.0957 1.0487 7.99992 1.33203 7.99992H7.9987V1.33325C7.9987 1.04992 8.09459 0.812474 8.28637 0.620919C8.47814 0.429141 8.7157 0.333252 8.99903 0.333252C9.28259 0.333252 9.52003 0.429141 9.71136 0.620919C9.90292 0.812474 9.9987 1.04992 9.9987 1.33325V7.99992H16.6654C16.9487 7.99992 17.1861 8.09581 17.3777 8.28759C17.5695 8.47936 17.6654 8.71692 17.6654 9.00025C17.6654 9.28381 17.5695 9.52125 17.3777 9.71259C17.1861 9.90414 16.9487 9.99992 16.6654 9.99992H9.9987V16.6666C9.9987 16.9499 9.90281 17.1874 9.71103 17.3789C9.51925 17.5707 9.2817 17.6666 8.99836 17.6666C8.71481 17.6666 8.47736 17.5707 8.28603 17.3789C8.09448 17.1874 7.9987 16.9499 7.9987 16.6666V9.99992Z" fill="#1C1B1F"/>
</svg>
