<svg width="40" height="40" viewBox="0 0 40 40" fill="none" xmlns="http://www.w3.org/2000/svg">
<path d="M20.0001 15.7542C19.6498 15.7542 19.3586 15.6357 19.1263 15.3988C18.8941 15.1618 18.778 14.873 18.778 14.5321C18.778 14.1818 18.8941 13.8888 19.1263 13.653C19.3586 13.4171 19.6498 13.2992 20.0001 13.2992C20.3504 13.2992 20.6416 13.4171 20.8738 13.653C21.1061 13.8888 21.2222 14.18 21.2222 14.5267C21.2222 14.8734 21.1061 15.1646 20.8738 15.4005C20.6416 15.6363 20.3504 15.7542 20.0001 15.7542ZM18.953 10.4167V2.08337H21.0472V10.4167H18.953ZM12.1201 35.9296C11.3523 35.9296 10.7016 35.6609 10.168 35.1234C9.6344 34.5859 9.36759 33.9331 9.36759 33.165C9.36759 32.4075 9.63634 31.7612 10.1738 31.2259C10.7113 30.6906 11.3641 30.423 12.1322 30.423C12.9 30.423 13.5506 30.6925 14.0843 31.2317C14.6179 31.7712 14.8847 32.4213 14.8847 33.1821C14.8847 33.9432 14.6159 34.5914 14.0784 35.1267C13.5409 35.662 12.8882 35.9296 12.1201 35.9296ZM28.353 35.9296C27.588 35.9296 26.9398 35.6609 26.4084 35.1234C25.877 34.5859 25.6113 33.9331 25.6113 33.165C25.6113 32.4075 25.879 31.7612 26.4143 31.2259C26.9495 30.6906 27.5997 30.423 28.3647 30.423C29.1294 30.423 29.7794 30.6925 30.3147 31.2317C30.85 31.7712 31.1176 32.4213 31.1176 33.1821C31.1176 33.9432 30.8488 34.5914 30.3113 35.1267C29.7738 35.662 29.1211 35.9296 28.353 35.9296ZM2.95093 5.84421V3.75004H7.41051L14.3655 18.5088H25.8868C25.9829 18.5088 26.0684 18.4846 26.1434 18.4363C26.2182 18.3882 26.2822 18.3216 26.3355 18.2363L32.5876 7.16254H34.9488L28.4105 19.1838C28.1336 19.646 27.7762 20.0159 27.3384 20.2934C26.9007 20.5706 26.4247 20.7092 25.9105 20.7092H13.6409L11.4743 24.72C11.389 24.8484 11.3845 24.9873 11.4609 25.1367C11.5376 25.2864 11.6597 25.3613 11.8272 25.3613H31.1176V27.455H12.0022C10.9986 27.455 10.2379 27.0403 9.72009 26.2109C9.20232 25.3814 9.17607 24.5427 9.64135 23.6946L12.2222 19.013L6.07926 5.84421H2.95093Z" fill="white"/>
</svg>
