<svg width="40" height="40" viewBox="0 0 40 40" fill="none" xmlns="http://www.w3.org/2000/svg">
<path d="M6.26091 14.0067H33.7392V10.1071C33.7392 9.97875 33.6859 9.86111 33.5793 9.75417C33.4723 9.6475 33.3547 9.59417 33.2263 9.59417H6.77383C6.6455 9.59417 6.52786 9.6475 6.42092 9.75417C6.31425 9.86111 6.26091 9.97875 6.26091 10.1071V14.0067ZM4.16675 10.1071C4.16675 9.39069 4.42216 8.77708 4.933 8.26625C5.44383 7.75542 6.05744 7.5 6.77383 7.5H33.2263C33.9427 7.5 34.5563 7.75542 35.0672 8.26625C35.578 8.77708 35.8334 9.39069 35.8334 10.1071V18.9038H6.26091V29.8929C6.26091 30.0212 6.31425 30.1389 6.42092 30.2458C6.52786 30.3525 6.6455 30.4058 6.77383 30.4058H15.4755V32.5H6.77383C6.05744 32.5 5.44383 32.2446 4.933 31.7337C4.42216 31.2229 4.16675 30.6093 4.16675 29.8929V10.1071ZM24.6605 35.4488L18.1538 28.9421L19.6455 27.4508L24.6605 32.4488L34.3909 22.7179L35.8655 24.2433L24.6605 35.4488ZM6.26091 10.1071V29.8929C6.26091 30.0212 6.31425 30.1389 6.42092 30.2458C6.52786 30.3525 6.6455 30.4058 6.77383 30.4058H6.26091V23.3088V28.3771V9.59417H6.77383C6.6455 9.59417 6.52786 9.6475 6.42092 9.75417C6.31425 9.86111 6.26091 9.97875 6.26091 10.1071Z" fill="white"/>
</svg>
