<svg width="40" height="40" viewBox="0 0 40 40" fill="none" xmlns="http://www.w3.org/2000/svg">
<path d="M15.8397 12.5896V10.4958H24.7413V12.5896H15.8397ZM12.1201 35.9296C11.3523 35.9296 10.7016 35.6608 10.168 35.1233C9.6344 34.5858 9.36759 33.9331 9.36759 33.165C9.36759 32.4075 9.63634 31.7611 10.1738 31.2258C10.7113 30.6906 11.3641 30.4229 12.1322 30.4229C12.9 30.4229 13.5506 30.6925 14.0843 31.2317C14.6179 31.7711 14.8847 32.4213 14.8847 33.1821C14.8847 33.9432 14.6159 34.5914 14.0784 35.1267C13.5409 35.6619 12.8882 35.9296 12.1201 35.9296ZM28.353 35.9296C27.588 35.9296 26.9398 35.6608 26.4084 35.1233C25.877 34.5858 25.6113 33.9331 25.6113 33.165C25.6113 32.4075 25.879 31.7611 26.4143 31.2258C26.9495 30.6906 27.5997 30.4229 28.3647 30.4229C29.1294 30.4229 29.7794 30.6925 30.3147 31.2317C30.85 31.7711 31.1176 32.4213 31.1176 33.1821C31.1176 33.9432 30.8488 34.5914 30.3113 35.1267C29.7738 35.6619 29.1211 35.9296 28.353 35.9296ZM2.95093 5.84417V3.75H7.41051L14.3655 18.5088H25.8868C25.9829 18.5088 26.0684 18.4846 26.1434 18.4362C26.2182 18.3882 26.2822 18.3215 26.3355 18.2362L32.5876 7.1625H34.9488L28.4105 19.1838C28.1336 19.646 27.7762 20.0158 27.3384 20.2933C26.9007 20.5706 26.4247 20.7092 25.9105 20.7092H13.6409L11.4743 24.72C11.389 24.8483 11.3845 24.9872 11.4609 25.1367C11.5376 25.2864 11.6597 25.3613 11.8272 25.3613H31.1176V27.455H12.0022C10.9986 27.455 10.2379 27.0403 9.72009 26.2108C9.20232 25.3814 9.17607 24.5426 9.64135 23.6946L12.2222 19.0129L6.07926 5.84417H2.95093Z" fill="white"/>
</svg>
