<svg width="40" height="40" viewBox="0 0 40 40" fill="none" xmlns="http://www.w3.org/2000/svg">
<path d="M25.8333 32.6946L19.5299 26.3909L21.0212 24.8996L25.8333 29.7117L35.547 19.9979L37.0383 21.4892L25.8333 32.6946ZM34.1666 16.4017H32.0724V8.44044C32.0724 8.31211 32.0191 8.19447 31.9124 8.08752C31.8055 7.98086 31.6878 7.92752 31.5595 7.92752H28.312V11.6775H11.6878V7.92752H8.44034C8.312 7.92752 8.19436 7.98086 8.08742 8.08752C7.98075 8.19447 7.92742 8.31211 7.92742 8.44044V31.5596C7.92742 31.6879 7.98075 31.8056 8.08742 31.9125C8.19436 32.0192 8.312 32.0725 8.44034 32.0725H18.1474V34.1667H8.44034C7.70311 34.1667 7.08422 33.9166 6.58367 33.4163C6.08339 32.9157 5.83325 32.2968 5.83325 31.5596V8.44044C5.83325 7.70322 6.08339 7.08433 6.58367 6.58377C7.08422 6.0835 7.70311 5.83336 8.44034 5.83336H16.4991C16.6699 5.02141 17.0824 4.34836 17.7366 3.81419C18.3908 3.28002 19.1452 3.01294 19.9999 3.01294C20.8696 3.01294 21.6292 3.28002 22.2787 3.81419C22.9284 4.34836 23.3387 5.02141 23.5095 5.83336H31.5595C32.2967 5.83336 32.9156 6.0835 33.4162 6.58377C33.9164 7.08433 34.1666 7.70322 34.1666 8.44044V16.4017ZM19.9999 8.11961C20.4294 8.11961 20.7878 7.976 21.0753 7.68877C21.3626 7.40127 21.5062 7.0428 21.5062 6.61336C21.5062 6.18391 21.3626 5.82544 21.0753 5.53794C20.7878 5.25072 20.4294 5.10711 19.9999 5.10711C19.5705 5.10711 19.212 5.25072 18.9245 5.53794C18.6373 5.82544 18.4937 6.18391 18.4937 6.61336C18.4937 7.0428 18.6373 7.40127 18.9245 7.68877C19.212 7.976 19.5705 8.11961 19.9999 8.11961Z" fill="white"/>
</svg>
