<svg width="40" height="40" viewBox="0 0 40 40" fill="none" xmlns="http://www.w3.org/2000/svg">
<path d="M29.1366 33.6175L34.3995 28.4125L33.002 27.015L29.1366 30.813L27.5278 29.188L26.1303 30.6113L29.1366 33.6175ZM10.6412 14.3696H29.3587V12.2759H10.6412V14.3696ZM30.2562 37.5792C28.2517 37.5792 26.5434 36.8677 25.1312 35.4446C23.7189 34.0216 23.0128 32.3207 23.0128 30.3421C23.0128 28.3182 23.7188 26.5993 25.1308 25.1855C26.543 23.7713 28.256 23.0642 30.2699 23.0642C32.2652 23.0642 33.9719 23.7713 35.3899 25.1855C36.808 26.5993 37.517 28.3182 37.517 30.3421C37.517 32.3207 36.808 34.0216 35.3899 35.4446C33.9719 36.8677 32.2606 37.5792 30.2562 37.5792ZM5.83325 35.6238V8.44046C5.83325 7.72629 6.08922 7.11323 6.60117 6.60129C7.11311 6.08935 7.72617 5.83337 8.44034 5.83337H31.5595C32.2737 5.83337 32.8867 6.08935 33.3987 6.60129C33.9106 7.11323 34.1666 7.72629 34.1666 8.44046V20.1742C33.8352 20.0314 33.4966 19.9087 33.1508 19.8059C32.8052 19.7031 32.4458 19.6207 32.0724 19.5588V8.44046C32.0724 8.31212 32.0191 8.19448 31.9124 8.08754C31.8055 7.98087 31.6878 7.92754 31.5595 7.92754H8.44034C8.312 7.92754 8.19436 7.98087 8.08742 8.08754C7.98075 8.19448 7.92742 8.31212 7.92742 8.44046V32.0942H19.6358C19.7149 32.5778 19.8287 33.0442 19.977 33.4934C20.1253 33.9425 20.3078 34.3817 20.5245 34.8109L19.8237 35.5117L17.6283 33.5725L15.2562 35.6238L12.8845 33.5725L10.5128 35.6238L8.14117 33.5725L5.83325 35.6238ZM10.6412 27.7242H19.7949C19.8774 27.3512 19.973 26.991 20.0816 26.6438C20.1902 26.2966 20.3317 25.9588 20.5062 25.6305H10.6412V27.7242ZM10.6412 21.0471H24.6803C25.2617 20.6718 25.881 20.3645 26.5383 20.125C27.1958 19.8859 27.8849 19.7246 28.6058 19.6413V18.953H10.6412V21.0471Z" fill="white"/>
</svg>
