<svg width="40" height="40" viewBox="0 0 40 40" fill="none" xmlns="http://www.w3.org/2000/svg">
<path d="M12.0043 17.5683L20.0172 4.55124L28.0301 17.5683H12.0043ZM29.2855 36.0254C27.388 36.0254 25.7921 35.3764 24.4976 34.0783C23.2029 32.7803 22.5555 31.1826 22.5555 29.2854C22.5555 27.3879 23.2029 25.7919 24.4976 24.4975C25.7921 23.2028 27.388 22.5554 29.2855 22.5554C31.1827 22.5554 32.7804 23.2028 34.0784 24.4975C35.3765 25.7919 36.0255 27.3879 36.0255 29.2854C36.0255 31.1826 35.3765 32.7803 34.0784 34.0783C32.7804 35.3764 31.1827 36.0254 29.2855 36.0254ZM5.64136 35.0854V23.3612H17.3655V35.0854H5.64136ZM29.2926 33.9317C30.5871 33.9317 31.6839 33.4814 32.583 32.5808C33.4822 31.6803 33.9318 30.5811 33.9318 29.2833C33.9318 27.9855 33.4815 26.8887 32.5809 25.9929C31.6804 25.0973 30.5812 24.6496 29.2834 24.6496C27.9857 24.6496 26.8889 25.0983 25.993 25.9958C25.0975 26.8936 24.6497 27.9925 24.6497 29.2925C24.6497 30.5869 25.0984 31.6837 25.9959 32.5829C26.8937 33.4821 27.9926 33.9317 29.2926 33.9317ZM7.73511 32.9917H15.2714V25.455H7.73511V32.9917ZM15.7268 15.4742H24.3184L20.0172 8.56832L15.7268 15.4742Z" fill="white"/>
</svg>
