<svg width="40" height="40" viewBox="0 0 40 40" fill="none" xmlns="http://www.w3.org/2000/svg">
<path d="M4.16675 33.2263V21.5021H15.8909V33.2263H4.16675ZM6.26091 31.1325H13.7972V23.5963H6.26091V31.1325ZM10.5301 15.7092L18.543 2.6925L26.5555 15.7092H10.5301ZM14.2522 13.6154H22.8443L18.543 6.70917L14.2522 13.6154ZM36.1313 37.1346L31.8538 32.8567C31.2838 33.2678 30.658 33.5889 29.9763 33.82C29.2944 34.0511 28.5744 34.1667 27.8163 34.1667C25.9152 34.1667 24.3174 33.5176 23.023 32.2196C21.7286 30.9215 21.0813 29.3256 21.0813 27.4317C21.0813 25.5306 21.7286 23.9328 23.023 22.6383C24.3174 21.3439 25.9152 20.6967 27.8163 20.6967C29.7102 20.6967 31.3062 21.3439 32.6043 22.6383C33.9023 23.9328 34.5513 25.5306 34.5513 27.4317C34.5513 28.1767 34.4431 28.8761 34.2268 29.53C34.0101 30.1839 33.7069 30.7864 33.3172 31.3375L37.623 35.6433L36.1313 37.1346ZM27.8184 32.0725C29.1126 32.0725 30.2093 31.6224 31.1084 30.7221C32.0079 29.8215 32.4576 28.724 32.4576 27.4296C32.4576 26.1282 32.0073 25.0297 31.1068 24.1342C30.2062 23.2383 29.1087 22.7904 27.8142 22.7904C26.5129 22.7904 25.4144 23.2389 24.5188 24.1358C23.6233 25.0328 23.1755 26.132 23.1755 27.4333C23.1755 28.7278 23.6238 29.8246 24.5205 30.7238C25.4174 31.6229 26.5168 32.0725 27.8184 32.0725Z" fill="white"/>
</svg>
