<svg width="40" height="40" viewBox="0 0 40 40" fill="none" xmlns="http://www.w3.org/2000/svg">
<path d="M7.57915 32.5V12.6496L4.4104 5.76294L6.34623 4.84003L9.83123 12.6004H30.1858L33.6708 4.84003L35.6067 5.76294L32.4379 12.6496V32.5H7.57915ZM16.5875 20.9059H23.4571C23.7537 20.9059 24.0025 20.805 24.2033 20.6034C24.4039 20.4017 24.5042 20.1517 24.5042 19.8534C24.5042 19.555 24.4039 19.307 24.2033 19.1092C24.0025 18.9111 23.7537 18.8121 23.4571 18.8121H16.5875C16.2908 18.8121 16.0422 18.9129 15.8417 19.1146C15.6411 19.3163 15.5408 19.5663 15.5408 19.8646C15.5408 20.1629 15.6411 20.411 15.8417 20.6088C16.0422 20.8068 16.2908 20.9059 16.5875 20.9059ZM9.6729 30.4059H30.3442V14.6946H9.6729V30.4059Z" fill="white"/>
</svg>
