<svg width="40" height="40" viewBox="0 0 40 40" fill="none" xmlns="http://www.w3.org/2000/svg">
<path d="M5.52383 30.8333C4.81244 30.8333 4.20008 30.5766 3.68675 30.0633C3.17341 29.55 2.91675 28.9376 2.91675 28.2262V11.7737C2.91675 11.0623 3.17341 10.45 3.68675 9.93663C4.20008 9.42329 4.81244 9.16663 5.52383 9.16663H21.9767C22.6879 9.16663 23.3001 9.42329 23.8134 9.93663C24.3267 10.45 24.5834 11.0623 24.5834 11.7737V28.2262C24.5834 28.9376 24.3267 29.55 23.8134 30.0633C23.3001 30.5766 22.6879 30.8333 21.9767 30.8333H5.52383ZM29.4309 18.3333C28.9962 18.3333 28.6352 18.1895 28.348 17.902C28.0605 17.6148 27.9167 17.2538 27.9167 16.8191V10.6812C27.9167 10.2462 28.0605 9.8851 28.348 9.59787C28.6352 9.31037 28.9962 9.16663 29.4309 9.16663H35.5688C36.0038 9.16663 36.3649 9.31037 36.6522 9.59787C36.9397 9.8851 37.0834 10.2462 37.0834 10.6812V16.8191C37.0834 17.2538 36.9397 17.6148 36.6522 17.902C36.3649 18.1895 36.0038 18.3333 35.5688 18.3333H29.4309ZM30.0105 16.2395H34.9893V11.2608H30.0105V16.2395ZM5.52383 28.7391H21.9767C22.1262 28.7391 22.249 28.6911 22.3451 28.595C22.4412 28.4988 22.4892 28.3759 22.4892 28.2262V11.7737C22.4892 11.624 22.4412 11.5011 22.3451 11.405C22.249 11.3088 22.1262 11.2608 21.9767 11.2608H5.52383C5.37411 11.2608 5.25119 11.3088 5.15508 11.405C5.05897 11.5011 5.01091 11.624 5.01091 11.7737V28.2262C5.01091 28.3759 5.05897 28.4988 5.15508 28.595C5.25119 28.6911 5.37411 28.7391 5.52383 28.7391ZM29.4309 30.8333C28.9962 30.8333 28.6352 30.6895 28.348 30.402C28.0605 30.1148 27.9167 29.7537 27.9167 29.3187V23.1808C27.9167 22.7461 28.0605 22.3851 28.348 22.0979C28.6352 21.8104 28.9962 21.6666 29.4309 21.6666H35.5688C36.0038 21.6666 36.3649 21.8104 36.6522 22.0979C36.9397 22.3851 37.0834 22.7461 37.0834 23.1808V29.3187C37.0834 29.7537 36.9397 30.1148 36.6522 30.402C36.3649 30.6895 36.0038 30.8333 35.5688 30.8333H29.4309ZM30.0105 28.7391H34.9893V23.7604H30.0105V28.7391ZM17.9234 26.047C18.4431 26.047 18.8854 25.8625 19.2501 25.4933C19.6148 25.1241 19.7972 24.6797 19.7972 24.16C19.7972 23.6402 19.6145 23.198 19.2492 22.8333C18.884 22.4686 18.4405 22.2862 17.9188 22.2862C17.4047 22.2862 16.9624 22.4688 16.5922 22.8341C16.2216 23.1994 16.0363 23.6429 16.0363 24.1645C16.0363 24.6787 16.2209 25.1209 16.5901 25.4912C16.9592 25.8618 17.4037 26.047 17.9234 26.047ZM9.50008 25.7083L19.4584 15.75L18.0001 14.2916L8.04175 24.25L9.50008 25.7083ZM9.59008 17.7137C10.1098 17.7137 10.552 17.5291 10.9167 17.16C11.2815 16.7908 11.4638 16.3463 11.4638 15.8266C11.4638 15.3069 11.2812 14.8647 10.9159 14.5C10.5506 14.1352 10.1072 13.9529 9.5855 13.9529C9.07133 13.9529 8.62911 14.1355 8.25883 14.5008C7.88828 14.8661 7.703 15.3095 7.703 15.8312C7.703 16.3454 7.88758 16.7876 8.25675 17.1579C8.62592 17.5284 9.07036 17.7137 9.59008 17.7137Z" fill="white"/>
</svg>
