<svg width="40" height="40" viewBox="0 0 40 40" fill="none" xmlns="http://www.w3.org/2000/svg">
<path d="M12.1926 35.9487L10.718 34.4742L21.5001 23.6667L27.3334 29.5L36.1443 20.7171L37.6163 22.1892L27.3334 32.4742L21.5001 26.6408L12.1926 35.9487ZM6.77383 34.1667C6.05578 34.1667 5.44175 33.9112 4.93175 33.4004C4.42175 32.8896 4.16675 32.276 4.16675 31.5596V8.03416C4.16675 7.31777 4.42216 6.7043 4.933 6.19374C5.44383 5.68291 6.05744 5.42749 6.77383 5.42749H29.893C30.6094 5.42749 31.223 5.68291 31.7338 6.19374C32.2447 6.7043 32.5001 7.31777 32.5001 8.03416V15.6433H6.26091V31.5596C6.26091 31.6879 6.31425 31.8055 6.42092 31.9125C6.52786 32.0192 6.6455 32.0725 6.77383 32.0725V34.1667ZM6.26091 13.5492H30.4059V8.03416C30.4059 7.9061 30.3526 7.7886 30.2459 7.68166C30.139 7.57471 30.0213 7.52124 29.893 7.52124H6.77383C6.6455 7.52124 6.52786 7.57471 6.42092 7.68166C6.31425 7.7886 6.26091 7.9061 6.26091 8.03416V13.5492Z" fill="white"/>
</svg>
