<svg width="40" height="40" viewBox="0 0 40 40" fill="none" xmlns="http://www.w3.org/2000/svg">
<path d="M9.41615 32.5792C8.13143 32.5792 7.03796 32.1275 6.13574 31.2242C5.23324 30.3208 4.78199 29.224 4.78199 27.9338H2.24365V10.1071C2.24365 9.39069 2.49893 8.77708 3.00949 8.26625C3.52032 7.75542 4.13393 7.5 4.85032 7.5H27.9316V13.9871H32.0449L37.7562 21.6217V27.9338H34.9295C34.9295 29.224 34.4778 30.3208 33.5745 31.2242C32.6712 32.1275 31.5742 32.5792 30.2837 32.5792C28.9962 32.5792 27.9018 32.1275 27.0007 31.2242C26.0999 30.3208 25.6495 29.224 25.6495 27.9338H14.062C14.062 29.2257 13.6088 30.3229 12.7024 31.2254C11.796 32.1279 10.7006 32.5792 9.41615 32.5792ZM9.42199 30.485C10.1306 30.485 10.7321 30.2379 11.2266 29.7437C11.7207 29.2493 11.9678 28.6478 11.9678 27.9392C11.9678 27.2303 11.7207 26.6288 11.2266 26.1346C10.7321 25.6401 10.1306 25.3929 9.42199 25.3929C8.7131 25.3929 8.11157 25.6401 7.6174 26.1346C7.12296 26.6288 6.87574 27.2303 6.87574 27.9392C6.87574 28.6478 7.12296 29.2493 7.6174 29.7437C8.11157 30.2379 8.7131 30.485 9.42199 30.485ZM4.3374 25.8396H5.33949C5.69421 25.1054 6.23504 24.4956 6.96199 24.01C7.68893 23.5247 8.50226 23.2821 9.40199 23.2821C10.2806 23.2821 11.0906 23.525 11.832 24.0108C12.5737 24.4964 13.1218 25.106 13.4766 25.8396H25.8374V9.59417H4.85032C4.72199 9.59417 4.60449 9.6475 4.49782 9.75417C4.39087 9.86111 4.3374 9.97875 4.3374 10.1071V25.8396ZM30.2895 30.485C30.9981 30.485 31.5996 30.2379 32.0941 29.7437C32.5882 29.2493 32.8353 28.6478 32.8353 27.9392C32.8353 27.2303 32.5882 26.6288 32.0941 26.1346C31.5996 25.6401 30.9981 25.3929 30.2895 25.3929C29.5809 25.3929 28.9793 25.6401 28.4849 26.1346C27.9907 26.6288 27.7437 27.2303 27.7437 27.9392C27.7437 28.6478 27.9907 29.2493 28.4849 29.7437C28.9793 30.2379 29.5809 30.485 30.2895 30.485ZM27.9316 22.3825H35.7266L30.9657 16.0813H27.9316V22.3825Z" fill="white"/>
</svg>
