<svg width="273" height="30" viewBox="0 0 273 30" fill="none" xmlns="http://www.w3.org/2000/svg">
<path d="M7.32 6.4V12.08H16.48V17.36H7.32V23.52H17.68V29H0.48V0.919999H17.68V6.4H7.32ZM39.3206 12.12V17.8H21.7206V12.12H39.3206ZM44.1637 14.92C44.1637 12.1467 44.7638 9.68 45.9638 7.52C47.1638 5.33333 48.8304 3.64 50.9638 2.44C53.1238 1.21333 55.5638 0.599998 58.2838 0.599998C61.6171 0.599998 64.4704 1.48 66.8438 3.24C69.2171 5 70.8038 7.4 71.6038 10.44H64.0838C63.5238 9.26667 62.7238 8.37333 61.6838 7.76C60.6704 7.14667 59.5104 6.84 58.2038 6.84C56.0971 6.84 54.3904 7.57333 53.0838 9.04C51.7771 10.5067 51.1238 12.4667 51.1238 14.92C51.1238 17.3733 51.7771 19.3333 53.0838 20.8C54.3904 22.2667 56.0971 23 58.2038 23C59.5104 23 60.6704 22.6933 61.6838 22.08C62.7238 21.4667 63.5238 20.5733 64.0838 19.4H71.6038C70.8038 22.44 69.2171 24.84 66.8438 26.6C64.4704 28.3333 61.6171 29.2 58.2838 29.2C55.5638 29.2 53.1238 28.6 50.9638 27.4C48.8304 26.1733 47.1638 24.48 45.9638 22.32C44.7638 20.16 44.1637 17.6933 44.1637 14.92ZM85.9525 29.32C83.7658 29.32 81.7925 28.8533 80.0325 27.92C78.2992 26.9867 76.9258 25.6533 75.9125 23.92C74.9258 22.1867 74.4325 20.16 74.4325 17.84C74.4325 15.5467 74.9392 13.5333 75.9525 11.8C76.9658 10.04 78.3525 8.69333 80.1125 7.76C81.8725 6.82667 83.8458 6.36 86.0325 6.36C88.2192 6.36 90.1925 6.82667 91.9525 7.76C93.7125 8.69333 95.0992 10.04 96.1125 11.8C97.1258 13.5333 97.6325 15.5467 97.6325 17.84C97.6325 20.1333 97.1125 22.16 96.0725 23.92C95.0592 25.6533 93.6592 26.9867 91.8725 27.92C90.1125 28.8533 88.1392 29.32 85.9525 29.32ZM85.9525 23.4C87.2592 23.4 88.3658 22.92 89.2725 21.96C90.2058 21 90.6725 19.6267 90.6725 17.84C90.6725 16.0533 90.2192 14.68 89.3125 13.72C88.4325 12.76 87.3392 12.28 86.0325 12.28C84.6992 12.28 83.5925 12.76 82.7125 13.72C81.8325 14.6533 81.3925 16.0267 81.3925 17.84C81.3925 19.6267 81.8192 21 82.6725 21.96C83.5525 22.92 84.6458 23.4 85.9525 23.4ZM129.741 6.44C132.515 6.44 134.715 7.28 136.341 8.96C137.995 10.64 138.821 12.9733 138.821 15.96V29H132.021V16.88C132.021 15.44 131.635 14.3333 130.861 13.56C130.115 12.76 129.075 12.36 127.741 12.36C126.408 12.36 125.355 12.76 124.581 13.56C123.835 14.3333 123.461 15.44 123.461 16.88V29H116.661V16.88C116.661 15.44 116.275 14.3333 115.501 13.56C114.755 12.76 113.715 12.36 112.381 12.36C111.048 12.36 109.995 12.76 109.221 13.56C108.475 14.3333 108.101 15.44 108.101 16.88V29H101.261V6.68H108.101V9.48C108.795 8.54667 109.701 7.81333 110.821 7.28C111.941 6.72 113.208 6.44 114.621 6.44C116.301 6.44 117.795 6.8 119.101 7.52C120.435 8.24 121.475 9.26667 122.221 10.6C122.995 9.37333 124.048 8.37333 125.381 7.6C126.715 6.82667 128.168 6.44 129.741 6.44ZM172.085 6.44C174.858 6.44 177.058 7.28 178.685 8.96C180.338 10.64 181.165 12.9733 181.165 15.96V29H174.365V16.88C174.365 15.44 173.978 14.3333 173.205 13.56C172.458 12.76 171.418 12.36 170.085 12.36C168.752 12.36 167.698 12.76 166.925 13.56C166.178 14.3333 165.805 15.44 165.805 16.88V29H159.005V16.88C159.005 15.44 158.618 14.3333 157.845 13.56C157.098 12.76 156.058 12.36 154.725 12.36C153.392 12.36 152.338 12.76 151.565 13.56C150.818 14.3333 150.445 15.44 150.445 16.88V29H143.605V6.68H150.445V9.48C151.138 8.54667 152.045 7.81333 153.165 7.28C154.285 6.72 155.552 6.44 156.965 6.44C158.645 6.44 160.138 6.8 161.445 7.52C162.778 8.24 163.818 9.26667 164.565 10.6C165.338 9.37333 166.392 8.37333 167.725 7.6C169.058 6.82667 170.512 6.44 172.085 6.44ZM206.989 17.48C206.989 18.12 206.949 18.7867 206.869 19.48H191.389C191.495 20.8667 191.935 21.9333 192.709 22.68C193.509 23.4 194.482 23.76 195.629 23.76C197.335 23.76 198.522 23.04 199.189 21.6H206.469C206.095 23.0667 205.415 24.3867 204.429 25.56C203.469 26.7333 202.255 27.6533 200.789 28.32C199.322 28.9867 197.682 29.32 195.869 29.32C193.682 29.32 191.735 28.8533 190.029 27.92C188.322 26.9867 186.989 25.6533 186.029 23.92C185.069 22.1867 184.589 20.16 184.589 17.84C184.589 15.52 185.055 13.4933 185.989 11.76C186.949 10.0267 188.282 8.69333 189.989 7.76C191.695 6.82667 193.655 6.36 195.869 6.36C198.029 6.36 199.949 6.81333 201.629 7.72C203.309 8.62667 204.615 9.92 205.549 11.6C206.509 13.28 206.989 15.24 206.989 17.48ZM199.989 15.68C199.989 14.5067 199.589 13.5733 198.789 12.88C197.989 12.1867 196.989 11.84 195.789 11.84C194.642 11.84 193.669 12.1733 192.869 12.84C192.095 13.5067 191.615 14.4533 191.429 15.68H199.989ZM217.437 10.4C218.237 9.17333 219.237 8.21333 220.437 7.52C221.637 6.8 222.971 6.44 224.437 6.44V13.68H222.557C220.851 13.68 219.571 14.0533 218.717 14.8C217.864 15.52 217.437 16.8 217.437 18.64V29H210.597V6.68H217.437V10.4ZM226.347 17.84C226.347 15.52 226.813 13.4933 227.747 11.76C228.707 10.0267 230.027 8.69333 231.707 7.76C233.413 6.82667 235.36 6.36 237.547 6.36C240.347 6.36 242.68 7.09333 244.547 8.56C246.44 10.0267 247.68 12.0933 248.267 14.76H240.987C240.373 13.0533 239.187 12.2 237.427 12.2C236.173 12.2 235.173 12.6933 234.427 13.68C233.68 14.64 233.307 16.0267 233.307 17.84C233.307 19.6533 233.68 21.0533 234.427 22.04C235.173 23 236.173 23.48 237.427 23.48C239.187 23.48 240.373 22.6267 240.987 20.92H248.267C247.68 23.5333 246.44 25.5867 244.547 27.08C242.653 28.5733 240.32 29.32 237.547 29.32C235.36 29.32 233.413 28.8533 231.707 27.92C230.027 26.9867 228.707 25.6533 227.747 23.92C226.813 22.1867 226.347 20.16 226.347 17.84ZM272.965 17.48C272.965 18.12 272.925 18.7867 272.845 19.48H257.365C257.472 20.8667 257.912 21.9333 258.685 22.68C259.485 23.4 260.459 23.76 261.605 23.76C263.312 23.76 264.499 23.04 265.165 21.6H272.445C272.072 23.0667 271.392 24.3867 270.405 25.56C269.445 26.7333 268.232 27.6533 266.765 28.32C265.299 28.9867 263.659 29.32 261.845 29.32C259.659 29.32 257.712 28.8533 256.005 27.92C254.299 26.9867 252.965 25.6533 252.005 23.92C251.045 22.1867 250.565 20.16 250.565 17.84C250.565 15.52 251.032 13.4933 251.965 11.76C252.925 10.0267 254.259 8.69333 255.965 7.76C257.672 6.82667 259.632 6.36 261.845 6.36C264.005 6.36 265.925 6.81333 267.605 7.72C269.285 8.62667 270.592 9.92 271.525 11.6C272.485 13.28 272.965 15.24 272.965 17.48ZM265.965 15.68C265.965 14.5067 265.565 13.5733 264.765 12.88C263.965 12.1867 262.965 11.84 261.765 11.84C260.619 11.84 259.645 12.1733 258.845 12.84C258.072 13.5067 257.592 14.4533 257.405 15.68H265.965Z" fill="white"/>
</svg>
