<svg width="140" height="40" viewBox="0 0 140 40" fill="none" xmlns="http://www.w3.org/2000/svg">
<rect x="0.5" y="0.5" width="139" height="39" fill="white" stroke="black"/>
<path d="M21.5753 19.1293H20.0241C19.9645 18.7978 19.8535 18.5062 19.6911 18.2543C19.5286 18.0024 19.3298 17.7886 19.0945 17.6129C18.8591 17.4373 18.5956 17.3047 18.304 17.2152C18.0156 17.1257 17.709 17.081 17.3842 17.081C16.7976 17.081 16.2723 17.2285 15.8082 17.5234C15.3475 17.8184 14.983 18.2509 14.7145 18.821C14.4493 19.3911 14.3168 20.0871 14.3168 20.9091C14.3168 21.7377 14.4493 22.437 14.7145 23.0071C14.983 23.5772 15.3492 24.008 15.8132 24.2997C16.2772 24.5914 16.7992 24.7372 17.3793 24.7372C17.7008 24.7372 18.0057 24.6941 18.294 24.608C18.5857 24.5185 18.8492 24.3875 19.0845 24.2152C19.3198 24.0429 19.5187 23.8324 19.6811 23.5838C19.8468 23.3319 19.9612 23.0436 20.0241 22.7188L21.5753 22.7237C21.4924 23.2242 21.3317 23.6849 21.093 24.1058C20.8577 24.5234 20.5545 24.8847 20.1832 25.1896C19.8153 25.4912 19.3944 25.7249 18.9205 25.8906C18.4465 26.0563 17.9295 26.1392 17.3693 26.1392C16.4877 26.1392 15.7022 25.9304 15.0128 25.5128C14.3234 25.0919 13.7798 24.4903 13.3821 23.7081C12.9877 22.9259 12.7905 21.9929 12.7905 20.9091C12.7905 19.822 12.9893 18.889 13.3871 18.1101C13.7848 17.3279 14.3284 16.728 15.0178 16.3104C15.7071 15.8894 16.491 15.679 17.3693 15.679C17.9096 15.679 18.4134 15.7569 18.8807 15.9126C19.3513 16.0651 19.7739 16.2905 20.1484 16.5888C20.523 16.8838 20.8329 17.245 21.0781 17.6726C21.3234 18.0968 21.4891 18.5824 21.5753 19.1293ZM25.5165 26.169C25.0326 26.169 24.5951 26.0795 24.204 25.9006C23.8129 25.7183 23.503 25.4548 23.2743 25.1101C23.0489 24.7654 22.9363 24.3428 22.9363 23.8423C22.9363 23.4115 23.0191 23.0568 23.1848 22.7784C23.3506 22.5 23.5743 22.2796 23.856 22.1172C24.1377 21.9548 24.4526 21.8321 24.8006 21.7493C25.1486 21.6664 25.5033 21.6035 25.8645 21.5604C26.3219 21.5073 26.6931 21.4643 26.9782 21.4311C27.2632 21.3946 27.4703 21.3366 27.5996 21.2571C27.7289 21.1776 27.7935 21.0483 27.7935 20.8693V20.8345C27.7935 20.4003 27.6709 20.0639 27.4256 19.8253C27.1837 19.5866 26.8224 19.4673 26.3418 19.4673C25.8413 19.4673 25.4469 19.5784 25.1586 19.8004C24.8735 20.0192 24.6763 20.2628 24.5669 20.5312L23.1699 20.2131C23.3356 19.7491 23.5776 19.3745 23.8958 19.0895C24.2173 18.8011 24.5868 18.5923 25.0044 18.4631C25.4221 18.3305 25.8612 18.2642 26.3219 18.2642C26.6268 18.2642 26.95 18.3007 27.2914 18.3736C27.6361 18.4432 27.9576 18.5724 28.2559 18.7614C28.5575 18.9503 28.8044 19.2204 28.9966 19.5717C29.1889 19.9197 29.285 20.3722 29.285 20.929V26H27.8333V24.956H27.7736C27.6775 25.1482 27.5333 25.3371 27.3411 25.5227C27.1489 25.7083 26.9019 25.8625 26.6003 25.9851C26.2987 26.1077 25.9374 26.169 25.5165 26.169ZM25.8397 24.9759C26.2507 24.9759 26.602 24.8946 26.8936 24.7322C27.1886 24.5698 27.4123 24.3577 27.5648 24.0959C27.7206 23.8307 27.7985 23.5473 27.7985 23.2457V22.2614C27.7454 22.3144 27.6427 22.3641 27.4902 22.4105C27.3411 22.4536 27.1704 22.4917 26.9782 22.5249C26.7859 22.5547 26.5987 22.5829 26.4164 22.6094C26.2341 22.6326 26.0816 22.6525 25.959 22.669C25.6706 22.7055 25.4071 22.7668 25.1685 22.853C24.9332 22.9392 24.7443 23.0634 24.6017 23.2259C24.4625 23.3849 24.3929 23.5971 24.3929 23.8622C24.3929 24.2301 24.5288 24.5085 24.8006 24.6974C25.0724 24.883 25.4187 24.9759 25.8397 24.9759ZM36.9872 20.228L35.6399 20.4666C35.5836 20.2943 35.4941 20.1302 35.3714 19.9744C35.2521 19.8187 35.0897 19.6911 34.8842 19.5916C34.6787 19.4922 34.4219 19.4425 34.1136 19.4425C33.6927 19.4425 33.3414 19.5369 33.0597 19.7259C32.7779 19.9115 32.6371 20.1518 32.6371 20.4467C32.6371 20.7019 32.7315 20.9074 32.9205 21.0632C33.1094 21.219 33.4143 21.3466 33.8352 21.446L35.0483 21.7244C35.7509 21.8868 36.2746 22.1371 36.6193 22.4751C36.964 22.8132 37.1364 23.2524 37.1364 23.7926C37.1364 24.25 37.0038 24.6577 36.7386 25.0156C36.4768 25.3703 36.1106 25.6487 35.6399 25.8509C35.1726 26.053 34.6307 26.1541 34.0142 26.1541C33.1591 26.1541 32.4614 25.9718 31.9212 25.6072C31.3809 25.2393 31.0495 24.7173 30.9268 24.0412L32.3636 23.8224C32.4531 24.197 32.6371 24.4804 32.9155 24.6726C33.1939 24.8615 33.5568 24.956 34.0043 24.956C34.4915 24.956 34.8809 24.8549 35.1726 24.6527C35.4643 24.4472 35.6101 24.197 35.6101 23.902C35.6101 23.6634 35.5206 23.4628 35.3416 23.3004C35.166 23.138 34.8958 23.0154 34.5312 22.9325L33.2386 22.6491C32.526 22.4867 31.9991 22.2282 31.6577 21.8736C31.3196 21.5189 31.1506 21.0698 31.1506 20.5263C31.1506 20.0755 31.2765 19.6811 31.5284 19.343C31.7803 19.005 32.1283 18.7415 32.5724 18.5526C33.0166 18.3603 33.5253 18.2642 34.0987 18.2642C34.924 18.2642 35.5736 18.4432 36.0476 18.8011C36.5215 19.1558 36.8348 19.6314 36.9872 20.228ZM40.2573 21.4659V26H38.7708V15.8182H40.2374V19.6065H40.3319C40.5108 19.1955 40.7843 18.8691 41.1522 18.6271C41.5201 18.3852 42.0007 18.2642 42.5939 18.2642C43.1176 18.2642 43.575 18.3719 43.9661 18.5874C44.3605 18.8028 44.6654 19.1243 44.8809 19.5518C45.0996 19.9761 45.209 20.5064 45.209 21.1428V26H43.7225V21.3217C43.7225 20.7616 43.5783 20.3274 43.29 20.0192C43.0016 19.7076 42.6006 19.5518 42.0868 19.5518C41.7355 19.5518 41.4206 19.6264 41.1422 19.7756C40.8671 19.9247 40.65 20.1435 40.4909 20.4318C40.3352 20.7169 40.2573 21.0616 40.2573 21.4659ZM59.8615 20.9091C59.8615 21.9962 59.6626 22.9309 59.2649 23.7131C58.8672 24.492 58.322 25.0919 57.6293 25.5128C56.9399 25.9304 56.156 26.1392 55.2777 26.1392C54.3961 26.1392 53.6089 25.9304 52.9162 25.5128C52.2268 25.0919 51.6832 24.4903 51.2855 23.7081C50.8878 22.9259 50.6889 21.9929 50.6889 20.9091C50.6889 19.822 50.8878 18.889 51.2855 18.1101C51.6832 17.3279 52.2268 16.728 52.9162 16.3104C53.6089 15.8894 54.3961 15.679 55.2777 15.679C56.156 15.679 56.9399 15.8894 57.6293 16.3104C58.322 16.728 58.8672 17.3279 59.2649 18.1101C59.6626 18.889 59.8615 19.822 59.8615 20.9091ZM58.3402 20.9091C58.3402 20.0805 58.206 19.3828 57.9375 18.8161C57.6723 18.246 57.3078 17.8151 56.8438 17.5234C56.383 17.2285 55.861 17.081 55.2777 17.081C54.6911 17.081 54.1674 17.2285 53.7067 17.5234C53.246 17.8151 52.8814 18.246 52.6129 18.8161C52.3478 19.3828 52.2152 20.0805 52.2152 20.9091C52.2152 21.7377 52.3478 22.437 52.6129 23.0071C52.8814 23.5739 53.246 24.0047 53.7067 24.2997C54.1674 24.5914 54.6911 24.7372 55.2777 24.7372C55.861 24.7372 56.383 24.5914 56.8438 24.2997C57.3078 24.0047 57.6723 23.5739 57.9375 23.0071C58.206 22.437 58.3402 21.7377 58.3402 20.9091ZM63.144 21.4659V26H61.6575V18.3636H63.0843V19.6065H63.1788C63.3545 19.2022 63.6296 18.8774 64.0041 18.6321C64.3819 18.3868 64.8575 18.2642 65.4309 18.2642C65.9513 18.2642 66.407 18.3736 66.7981 18.5923C67.1892 18.8078 67.4925 19.1293 67.7079 19.5568C67.9234 19.9844 68.0311 20.513 68.0311 21.1428V26H66.5446V21.3217C66.5446 20.7682 66.4004 20.3357 66.112 20.0241C65.8237 19.7093 65.4276 19.5518 64.9238 19.5518C64.5791 19.5518 64.2725 19.6264 64.0041 19.7756C63.7389 19.9247 63.5285 20.1435 63.3727 20.4318C63.2202 20.7169 63.144 21.0616 63.144 21.4659ZM77.1452 26H73.8491V15.8182H77.2496C78.2473 15.8182 79.104 16.022 79.82 16.4297C80.5359 16.834 81.0844 17.4157 81.4656 18.1747C81.85 18.9304 82.0423 19.8369 82.0423 20.8942C82.0423 21.9548 81.8484 22.8662 81.4606 23.6286C81.0761 24.3909 80.5193 24.9775 79.7901 25.3885C79.061 25.7962 78.1793 26 77.1452 26ZM75.3853 24.6577H77.0607C77.8363 24.6577 78.4809 24.5118 78.9947 24.2202C79.5084 23.9252 79.8929 23.4993 80.1481 22.9425C80.4033 22.3823 80.5309 21.6996 80.5309 20.8942C80.5309 20.0954 80.4033 19.4176 80.1481 18.8608C79.8962 18.304 79.52 17.8814 79.0195 17.593C78.5191 17.3047 77.8976 17.1605 77.1552 17.1605H75.3853V24.6577ZM87.1245 26.1541C86.3721 26.1541 85.7241 25.9934 85.1806 25.6719C84.6403 25.3471 84.2227 24.8913 83.9277 24.3047C83.6361 23.7147 83.4902 23.0237 83.4902 22.2315C83.4902 21.4493 83.6361 20.7599 83.9277 20.1634C84.2227 19.5668 84.6337 19.1011 85.1607 18.7663C85.691 18.4316 86.3108 18.2642 87.0201 18.2642C87.4509 18.2642 87.8685 18.3355 88.2729 18.478C88.6773 18.6205 89.0402 18.8442 89.3617 19.1491C89.6832 19.4541 89.9367 19.8501 90.1223 20.3374C90.3079 20.8213 90.4007 21.4096 90.4007 22.1023V22.6293H84.3304V21.5156H88.9441C88.9441 21.1245 88.8645 20.7782 88.7054 20.4766C88.5463 20.1716 88.3226 19.9313 88.0343 19.7557C87.7492 19.58 87.4145 19.4922 87.03 19.4922C86.6124 19.4922 86.2478 19.5949 85.9363 19.8004C85.628 20.0026 85.3894 20.2678 85.2203 20.5959C85.0546 20.9207 84.9718 21.2737 84.9718 21.6548V22.5249C84.9718 23.0353 85.0613 23.4695 85.2402 23.8274C85.4225 24.1854 85.6761 24.4588 86.0009 24.6477C86.3257 24.8333 86.7052 24.9261 87.1394 24.9261C87.4211 24.9261 87.678 24.8864 87.91 24.8068C88.142 24.724 88.3425 24.6013 88.5115 24.4389C88.6806 24.2765 88.8098 24.076 88.8993 23.8374L90.3063 24.0909C90.1936 24.5052 89.9914 24.8681 89.6998 25.1797C89.4114 25.4879 89.0485 25.7282 88.611 25.9006C88.1768 26.0696 87.6813 26.1541 87.1245 26.1541ZM93.5366 15.8182V26H92.0501V15.8182H93.5366ZM95.5364 26V18.3636H97.0229V26H95.5364ZM96.2871 17.1854C96.0286 17.1854 95.8065 17.0992 95.6209 16.9268C95.4386 16.7512 95.3475 16.5424 95.3475 16.3004C95.3475 16.0552 95.4386 15.8464 95.6209 15.674C95.8065 15.4983 96.0286 15.4105 96.2871 15.4105C96.5456 15.4105 96.766 15.4983 96.9483 15.674C97.1339 15.8464 97.2267 16.0552 97.2267 16.3004C97.2267 16.5424 97.1339 16.7512 96.9483 16.9268C96.766 17.0992 96.5456 17.1854 96.2871 17.1854ZM105.555 18.3636L102.786 26H101.195L98.4212 18.3636H100.017L101.951 24.2401H102.031L103.96 18.3636H105.555ZM109.984 26.1541C109.231 26.1541 108.584 25.9934 108.04 25.6719C107.5 25.3471 107.082 24.8913 106.787 24.3047C106.495 23.7147 106.35 23.0237 106.35 22.2315C106.35 21.4493 106.495 20.7599 106.787 20.1634C107.082 19.5668 107.493 19.1011 108.02 18.7663C108.55 18.4316 109.17 18.2642 109.879 18.2642C110.31 18.2642 110.728 18.3355 111.132 18.478C111.537 18.6205 111.9 18.8442 112.221 19.1491C112.543 19.4541 112.796 19.8501 112.982 20.3374C113.167 20.8213 113.26 21.4096 113.26 22.1023V22.6293H107.19V21.5156H111.803C111.803 21.1245 111.724 20.7782 111.565 20.4766C111.406 20.1716 111.182 19.9313 110.894 19.7557C110.609 19.58 110.274 19.4922 109.889 19.4922C109.472 19.4922 109.107 19.5949 108.796 19.8004C108.487 20.0026 108.249 20.2678 108.08 20.5959C107.914 20.9207 107.831 21.2737 107.831 21.6548V22.5249C107.831 23.0353 107.921 23.4695 108.1 23.8274C108.282 24.1854 108.535 24.4588 108.86 24.6477C109.185 24.8333 109.565 24.9261 109.999 24.9261C110.28 24.9261 110.537 24.8864 110.769 24.8068C111.001 24.724 111.202 24.6013 111.371 24.4389C111.54 24.2765 111.669 24.076 111.759 23.8374L113.166 24.0909C113.053 24.5052 112.851 24.8681 112.559 25.1797C112.271 25.4879 111.908 25.7282 111.47 25.9006C111.036 26.0696 110.541 26.1541 109.984 26.1541ZM114.909 26V18.3636H116.346V19.5767H116.426C116.565 19.1657 116.81 18.8426 117.162 18.6072C117.516 18.3686 117.917 18.2493 118.365 18.2493C118.458 18.2493 118.567 18.2526 118.693 18.2592C118.822 18.2659 118.923 18.2741 118.996 18.2841V19.706C118.936 19.6894 118.83 19.6712 118.678 19.6513C118.525 19.6281 118.373 19.6165 118.221 19.6165C117.869 19.6165 117.556 19.6911 117.281 19.8402C117.009 19.986 116.794 20.1899 116.635 20.4517C116.475 20.7102 116.396 21.0052 116.396 21.3366V26H114.909ZM121.455 28.8636C121.232 28.8636 121.03 28.8454 120.848 28.8089C120.666 28.7758 120.53 28.7393 120.44 28.6996L120.798 27.4815C121.07 27.5545 121.312 27.5859 121.524 27.576C121.736 27.5661 121.924 27.4865 122.086 27.3374C122.252 27.1882 122.397 26.9446 122.523 26.6065L122.707 26.0994L119.913 18.3636H121.504L123.438 24.2898H123.518L125.452 18.3636H127.048L123.901 27.0192C123.755 27.4169 123.569 27.7533 123.344 28.0284C123.118 28.3068 122.85 28.5156 122.538 28.6548C122.227 28.794 121.866 28.8636 121.455 28.8636Z" fill="black"/>
</svg>
