<svg width="178" height="64" viewBox="0 0 178 64" fill="none" xmlns="http://www.w3.org/2000/svg">
<path d="M1.54767 48.2471C1.05421 48.2471 0.672896 48.1125 0.403736 47.8433C0.134575 47.5293 -5.02294e-06 47.148 -5.02294e-06 46.6994V2.69164C-5.02294e-06 2.24304 0.134575 1.88416 0.403736 1.615C0.672896 1.30098 1.05421 1.14396 1.54767 1.14396H5.11405C5.56265 1.14396 5.92153 1.30098 6.19069 1.615C6.45985 1.88416 6.59443 2.24304 6.59443 2.69164V42.3928H29.002C29.4955 42.3928 29.8768 42.5498 30.146 42.8639C30.4151 43.133 30.5497 43.5143 30.5497 44.0078V46.6994C30.5497 47.148 30.4151 47.5293 30.146 47.8433C29.8768 48.1125 29.4955 48.2471 29.002 48.2471H1.54767ZM38.5893 48.2471C38.1407 48.2471 37.7594 48.1125 37.4454 47.8433C37.1762 47.5293 37.0416 47.148 37.0416 46.6994V14.8039C37.0416 14.3553 37.1762 13.9964 37.4454 13.7272C37.7594 13.4132 38.1407 13.2562 38.5893 13.2562H41.8192C42.2678 13.2562 42.6267 13.4132 42.8959 13.7272C43.165 13.9964 43.2996 14.3553 43.2996 14.8039V46.6994C43.2996 47.148 43.165 47.5293 42.8959 47.8433C42.6267 48.1125 42.2678 48.2471 41.8192 48.2471H38.5893ZM38.051 6.72905C37.6024 6.72905 37.2211 6.59447 36.9071 6.32531C36.6379 6.01129 36.5033 5.62997 36.5033 5.18137V1.54771C36.5033 1.09911 36.6379 0.740224 36.9071 0.471064C37.2211 0.157045 37.6024 3.52074e-05 38.051 3.52074e-05H42.2903C42.7389 3.52074e-05 43.0978 0.157045 43.3669 0.471064C43.6809 0.740224 43.8379 1.09911 43.8379 1.54771V5.18137C43.8379 5.62997 43.6809 6.01129 43.3669 6.32531C43.0978 6.59447 42.7389 6.72905 42.2903 6.72905H38.051ZM65.518 48.2471C64.8451 48.2471 64.3068 48.0901 63.903 47.776C63.5441 47.462 63.2526 47.0583 63.0283 46.5648L50.5796 15.3422C50.4899 15.1179 50.445 14.8936 50.445 14.6693C50.445 14.2655 50.5796 13.9291 50.8487 13.6599C51.1179 13.3908 51.4544 13.2562 51.8581 13.2562H55.088C55.5815 13.2562 55.9628 13.3908 56.232 13.6599C56.5011 13.9291 56.6581 14.1758 56.703 14.4001L66.9984 40.9124L77.2265 14.4001C77.3162 14.1758 77.4732 13.9291 77.6975 13.6599C77.9667 13.3908 78.348 13.2562 78.8414 13.2562H82.1387C82.4975 13.2562 82.8116 13.3908 83.0807 13.6599C83.3947 13.9291 83.5518 14.2655 83.5518 14.6693C83.5518 14.8936 83.5069 15.1179 83.4172 15.3422L70.9012 46.5648C70.7218 47.0583 70.4302 47.462 70.0264 47.776C69.6676 48.0901 69.1292 48.2471 68.4115 48.2471H65.518ZM92.1454 48.2471C91.6968 48.2471 91.3155 48.1125 91.0015 47.8433C90.7323 47.5293 90.5978 47.148 90.5978 46.6994V14.8039C90.5978 14.3553 90.7323 13.9964 91.0015 13.7272C91.3155 13.4132 91.6968 13.2562 92.1454 13.2562H95.3754C95.824 13.2562 96.1828 13.4132 96.452 13.7272C96.7212 13.9964 96.8557 14.3553 96.8557 14.8039V46.6994C96.8557 47.148 96.7212 47.5293 96.452 47.8433C96.1828 48.1125 95.824 48.2471 95.3754 48.2471H92.1454ZM91.6071 6.72905C91.1585 6.72905 90.7772 6.59447 90.4632 6.32531C90.194 6.01129 90.0594 5.62997 90.0594 5.18137V1.54771C90.0594 1.09911 90.194 0.740224 90.4632 0.471064C90.7772 0.157045 91.1585 3.52074e-05 91.6071 3.52074e-05H95.8464C96.295 3.52074e-05 96.6539 0.157045 96.923 0.471064C97.2371 0.740224 97.3941 1.09911 97.3941 1.54771V5.18137C97.3941 5.62997 97.2371 6.01129 96.923 6.32531C96.6539 6.59447 96.295 6.72905 95.8464 6.72905H91.6071ZM108.442 48.2471C107.994 48.2471 107.612 48.1125 107.298 47.8433C107.029 47.5293 106.895 47.148 106.895 46.6994V14.8039C106.895 14.3553 107.029 13.9964 107.298 13.7272C107.612 13.4132 107.994 13.2562 108.442 13.2562H111.605C112.054 13.2562 112.412 13.4132 112.682 13.7272C112.996 13.9964 113.153 14.3553 113.153 14.8039V17.7646C114.319 16.2394 115.777 15.0057 117.526 14.0637C119.321 13.0768 121.609 12.5833 124.39 12.5833C127.306 12.5833 129.773 13.2338 131.792 14.5347C133.856 15.7908 135.403 17.5628 136.435 19.8506C137.467 22.0936 137.983 24.7179 137.983 27.7236V46.6994C137.983 47.148 137.848 47.5293 137.579 47.8433C137.31 48.1125 136.951 48.2471 136.502 48.2471H133.138C132.689 48.2471 132.308 48.1125 131.994 47.8433C131.725 47.5293 131.59 47.148 131.59 46.6994V28.06C131.59 24.9198 130.827 22.4749 129.302 20.7254C127.777 18.931 125.534 18.0338 122.573 18.0338C119.792 18.0338 117.549 18.931 115.844 20.7254C114.184 22.4749 113.354 24.9198 113.354 28.06V46.6994C113.354 47.148 113.197 47.5293 112.883 47.8433C112.614 48.1125 112.255 48.2471 111.807 48.2471H108.442ZM162.035 63.0509C158.985 63.0509 156.473 62.6472 154.499 61.8397C152.57 61.0322 151.044 60.0453 149.923 58.8789C148.846 57.7574 148.061 56.6135 147.568 55.4471C147.119 54.3256 146.872 53.4284 146.828 52.7555C146.783 52.3069 146.917 51.9256 147.231 51.6116C147.59 51.2976 147.972 51.1405 148.375 51.1405H151.605C152.009 51.1405 152.345 51.2303 152.615 51.4097C152.884 51.5891 153.108 51.9705 153.287 52.5536C153.557 53.2265 153.96 53.9667 154.499 54.7742C155.037 55.6266 155.867 56.3443 156.988 56.9275C158.11 57.5555 159.68 57.8696 161.699 57.8696C163.807 57.8696 165.579 57.578 167.015 56.9948C168.45 56.4565 169.527 55.4695 170.245 54.034C171.007 52.6434 171.389 50.7144 171.389 48.2471V43.6713C170.312 45.062 168.899 46.2284 167.149 47.1704C165.4 48.0676 163.202 48.5162 160.555 48.5162C158.043 48.5162 155.889 48.0901 154.095 47.2377C152.301 46.3405 150.82 45.1517 149.654 43.6713C148.532 42.1461 147.68 40.419 147.097 38.49C146.558 36.561 146.244 34.5423 146.155 32.4339C146.11 31.1778 146.11 29.9441 146.155 28.7329C146.244 26.6245 146.558 24.6058 147.097 22.6768C147.68 20.7478 148.532 19.0207 149.654 17.4955C150.82 15.9702 152.301 14.7814 154.095 13.9291C155.889 13.0319 158.043 12.5833 160.555 12.5833C163.246 12.5833 165.467 13.0992 167.217 14.131C169.011 15.1179 170.469 16.3291 171.59 17.7646V14.8712C171.59 14.4226 171.725 14.0412 171.994 13.7272C172.308 13.4132 172.689 13.2562 173.138 13.2562H176.233C176.682 13.2562 177.063 13.4132 177.377 13.7272C177.691 14.0412 177.848 14.4226 177.848 14.8712V47.5069C177.848 50.5125 177.332 53.1817 176.301 55.5144C175.314 57.8471 173.654 59.6864 171.321 61.0322C169.033 62.378 165.938 63.0509 162.035 63.0509ZM161.901 43.133C164.144 43.133 165.938 42.6171 167.284 41.5853C168.674 40.5536 169.684 39.2526 170.312 37.6825C170.985 36.1124 171.344 34.5199 171.389 32.9049C171.433 32.2769 171.456 31.5143 171.456 30.6171C171.456 29.675 171.433 28.8899 171.389 28.2619C171.344 26.6469 170.985 25.0544 170.312 23.4843C169.684 21.9142 168.674 20.6132 167.284 19.5815C165.938 18.5497 164.144 18.0338 161.901 18.0338C159.658 18.0338 157.863 18.5497 156.517 19.5815C155.172 20.5684 154.207 21.8918 153.624 23.5516C153.041 25.1665 152.704 26.9161 152.615 28.8002C152.57 29.9666 152.57 31.1554 152.615 32.3666C152.704 34.2507 153.041 36.0227 153.624 37.6825C154.207 39.2975 155.172 40.6209 156.517 41.6526C157.863 42.6396 159.658 43.133 161.901 43.133Z" fill="black"/>
</svg>
