<svg width="22" height="22" viewBox="0 0 22 22" fill="none" xmlns="http://www.w3.org/2000/svg">
<path d="M11.3525 2.29528C14.1878 2.29528 14.5236 2.3059 15.6436 2.35697C16.317 2.36521 16.9841 2.48887 17.6157 2.72257C18.0738 2.89922 18.4898 3.16983 18.8369 3.51697C19.184 3.86411 19.4547 4.2801 19.6313 4.73816C19.865 5.36979 19.9887 6.03683 19.9969 6.71026C20.0475 7.83031 20.0586 8.16607 20.0586 11.0013C20.0586 13.8366 20.048 14.1724 19.9969 15.2924C19.9887 15.9659 19.865 16.6329 19.6313 17.2645C19.4547 17.7226 19.184 18.1386 18.8369 18.4857C18.4898 18.8329 18.0738 19.1035 17.6157 19.2801C16.9841 19.5138 16.317 19.6375 15.6436 19.6457C14.5241 19.6963 14.1883 19.7074 11.3525 19.7074C8.51675 19.7074 8.18098 19.6968 7.06144 19.6457C6.388 19.6375 5.72097 19.5138 5.08934 19.2801C4.63128 19.1035 4.21529 18.8329 3.86815 18.4857C3.52101 18.1386 3.2504 17.7226 3.07375 17.2645C2.84005 16.6329 2.71639 15.9659 2.70815 15.2924C2.65758 14.1724 2.64646 13.8366 2.64646 11.0013C2.64646 8.16607 2.65708 7.83031 2.70815 6.71026C2.71639 6.03683 2.84005 5.36979 3.07375 4.73816C3.2504 4.2801 3.52101 3.86411 3.86815 3.51697C4.21529 3.16983 4.63128 2.89922 5.08934 2.72257C5.72097 2.48887 6.388 2.36521 7.06144 2.35697C8.18149 2.3064 8.51725 2.29528 11.3525 2.29528ZM11.3525 0.381836C8.47023 0.381836 8.10716 0.393972 6.97446 0.44555C6.09311 0.46308 5.22111 0.629957 4.39556 0.939081C3.68737 1.2059 3.04593 1.62404 2.516 2.16431C1.97524 2.69444 1.55674 3.33624 1.28975 4.04489C0.98063 4.87044 0.813754 5.74243 0.796223 6.62379C0.745657 7.75547 0.733521 8.11854 0.733521 11.0008C0.733521 13.8831 0.745656 14.2462 0.797235 15.3789C0.814765 16.2603 0.981642 17.1323 1.29077 17.9578C1.55746 18.6664 1.9756 19.3082 2.516 19.8384C3.04622 20.3788 3.68802 20.7969 4.39657 21.0636C5.22212 21.3727 6.09412 21.5396 6.97547 21.5571C8.10817 21.6077 8.46972 21.6209 11.3535 21.6209C14.2374 21.6209 14.5989 21.6087 15.7316 21.5571C16.613 21.5396 17.485 21.3727 18.3105 21.0636C19.0157 20.7903 19.6561 20.3728 20.1907 19.8378C20.7253 19.3028 21.1424 18.6622 21.4153 17.9568C21.7244 17.1312 21.8913 16.2592 21.9088 15.3779C21.9594 14.2462 21.9715 13.8831 21.9715 11.0008C21.9715 8.11854 21.9594 7.75547 21.9078 6.62278C21.8903 5.74142 21.7234 4.86943 21.4143 4.04388C21.1476 3.33533 20.7295 2.69353 20.1891 2.1633C19.6588 1.62291 19.017 1.20476 18.3085 0.938069C17.4829 0.628945 16.6109 0.462069 15.7296 0.444539C14.5979 0.393972 14.2348 0.381836 11.3525 0.381836Z" fill="black"/>
<path d="M11.3547 5.5498C10.2762 5.5498 9.2219 5.86962 8.32514 6.46882C7.42838 7.06802 6.72944 7.91968 6.31671 8.9161C5.90397 9.91253 5.79598 11.009 6.00639 12.0668C6.2168 13.1246 6.73616 14.0962 7.49879 14.8588C8.26143 15.6215 9.23308 16.1408 10.2909 16.3512C11.3487 16.5617 12.4451 16.4537 13.4415 16.0409C14.438 15.6282 15.2896 14.9293 15.8888 14.0325C16.488 13.1357 16.8078 12.0814 16.8078 11.0029C16.8078 9.55666 16.2333 8.16964 15.2107 7.14698C14.188 6.12433 12.801 5.5498 11.3547 5.5498ZM11.3547 14.5426C10.6546 14.5426 9.97029 14.335 9.38819 13.946C8.8061 13.5571 8.35241 13.0043 8.0845 12.3575C7.81659 11.7107 7.74649 10.999 7.88307 10.3124C8.01965 9.62573 8.35677 8.99502 8.8518 8.49999C9.34683 8.00496 9.97754 7.66784 10.6642 7.53126C11.3508 7.39468 12.0625 7.46478 12.7093 7.73269C13.3561 8.0006 13.9089 8.45429 14.2979 9.03638C14.6868 9.61848 14.8944 10.3028 14.8944 11.0029C14.8944 11.9417 14.5215 12.842 13.8577 13.5058C13.1938 14.1697 12.2935 14.5426 11.3547 14.5426Z" fill="black"/>
<path d="M17.0222 6.60728C17.726 6.60728 18.2965 6.03676 18.2965 5.333C18.2965 4.62923 17.726 4.05872 17.0222 4.05872C16.3184 4.05872 15.7479 4.62923 15.7479 5.333C15.7479 6.03676 16.3184 6.60728 17.0222 6.60728Z" fill="black"/>
</svg>
