<svg width="18" height="15" viewBox="0 0 18 15" fill="none" xmlns="http://www.w3.org/2000/svg">
<path d="M17.676 2.27041C17.0192 2.56234 16.3259 2.7448 15.596 2.85427C16.3259 2.41638 16.9097 1.72304 17.1652 0.883736C16.4718 1.28514 15.7055 1.57707 14.8662 1.75953C14.2094 1.06619 13.2606 0.628296 12.2388 0.628296C10.2683 0.628296 8.66266 2.23392 8.66266 4.20446C8.66266 4.49639 8.69915 4.75183 8.77213 5.00727C5.81633 4.8613 3.15245 3.43814 1.36437 1.24865C1.07244 1.79602 0.889985 2.37988 0.889985 3.03673C0.889985 4.27744 1.51034 5.37218 2.49561 6.02903C1.91174 5.99254 1.36437 5.84657 0.853493 5.59113V5.62762C0.853493 7.37921 2.0942 8.83887 3.73632 9.16729C3.44438 9.24027 3.11596 9.27676 2.78754 9.27676C2.56859 9.27676 2.31315 9.24027 2.0942 9.20378C2.56859 10.6269 3.88228 11.6852 5.45141 11.6852C4.2107 12.634 2.67806 13.2178 0.999459 13.2178C0.707528 13.2178 0.415596 13.2178 0.160156 13.1813C1.76578 14.2031 3.62684 14.787 5.67036 14.787C12.2753 14.787 15.888 9.31326 15.888 4.56937C15.888 4.4234 15.888 4.24095 15.888 4.09498C16.5813 3.62059 17.2017 3.00024 17.676 2.27041Z" fill="black"/>
</svg>
