<svg width="29" height="21" viewBox="0 0 29 21" fill="none" xmlns="http://www.w3.org/2000/svg">
<g clip-path="url(#clip0_6_3)">
<path d="M18.6604 18.7595C18.0553 18.7856 17.4881 18.8052 16.9588 18.8183C16.4292 18.8313 15.9547 18.8379 15.5354 18.8379H14.1783C12.6118 18.8379 11.1445 18.8117 9.77656 18.7595C8.59279 18.7273 7.4337 18.6756 6.29931 18.6043C5.16465 18.533 4.33945 18.4307 3.82372 18.2974C3.24033 18.1423 2.73557 17.8538 2.30945 17.4321C1.88334 17.0107 1.59504 16.5083 1.44455 15.9249C1.31575 15.4089 1.21568 14.7903 1.14436 14.0689C1.07304 13.3473 1.02118 12.6449 0.988779 11.9617C0.936527 11.1819 0.9104 10.379 0.9104 9.55316C0.9104 8.72705 0.936527 7.9242 0.988779 7.14459C1.02118 6.46113 1.07304 5.75873 1.14436 5.03739C1.21568 4.31578 1.31784 3.69699 1.45082 3.181C1.60627 2.59786 1.8947 2.09324 2.31612 1.66712C2.73779 1.241 3.2402 0.952702 3.82333 0.802215C4.33932 0.673413 5.16465 0.573349 6.29931 0.502025C7.4337 0.430439 8.59279 0.37858 9.77656 0.346445C11.1432 0.294193 12.6093 0.268066 14.1748 0.268066C15.74 0.268066 17.2061 0.294193 18.573 0.346445C19.7567 0.37858 20.9158 0.430439 22.0502 0.502025C23.1846 0.573349 24.0098 0.675502 24.5258 0.808484C25.1089 0.963935 25.6136 1.25237 26.0397 1.67378C26.4658 2.0952 26.7541 2.5976 26.9046 3.181C27.0337 3.69699 27.1339 4.31578 27.2052 5.03739C27.2765 5.75873 27.3282 6.46113 27.3604 7.14459C27.4126 7.93229 27.4387 8.73097 27.4387 9.54062V10.0987C27.0228 9.90978 26.594 9.77157 26.1522 9.68405C25.7106 9.59679 25.2581 9.55316 24.7946 9.55316C22.9619 9.55316 21.3969 10.2003 20.0998 11.4946C18.8026 12.7889 18.154 14.3542 18.154 16.1906C18.154 16.6552 18.1962 17.1009 18.2806 17.5278C18.365 17.9549 18.4916 18.3655 18.6604 18.7595ZM11.5217 13.5324L18.4072 9.55316L11.5217 5.57389V13.5324ZM23.4595 20.1644V17.5113H20.8068V14.8586H23.4595V12.2059H26.1122V14.8586H28.7653V17.5113H26.1122V20.1644H23.4595Z" fill="black"/>
</g>
<defs>
<clipPath id="clip0_6_3">
<rect width="29" height="21" fill="white"/>
</clipPath>
</defs>
</svg>
